<?xml version="1.0"?>
<svg xmlns="http://www.w3.org/2000/svg" height="512px" viewBox="0 -32 512.00021 512" width="512px"><path d="m79.324219 254.808594h39.910156c5.394531 0 9.769531-4.371094 9.769531-9.757813v-38.105469c0-5.390624-4.375-9.757812-9.769531-9.757812h-39.910156c-5.390625 0-9.765625 4.367188-9.765625 9.757812v38.105469c0 5.386719 4.371094 9.757813 9.765625 9.757813zm9.769531-38.105469h20.375v18.589844h-20.375zm0 0" fill="#4680FF"/><path d="m79.324219 331.761719h39.910156c5.394531 0 9.769531-4.367188 9.769531-9.757813v-38.101562c0-5.390625-4.375-9.757813-9.769531-9.757813h-39.910156c-5.390625 0-9.765625 4.367188-9.765625 9.757813v38.101562c0 5.390625 4.371094 9.757813 9.765625 9.757813zm9.769531-38.105469h20.375v18.589844h-20.375zm0 0" fill="#4680FF"/><path d="m223.644531 164.191406h41.957031c5.390626 0 9.765626-4.371094 9.765626-9.757812v-40.066406c0-5.390626-4.375-9.757813-9.765626-9.757813h-41.957031c-5.394531 0-9.765625 4.367187-9.765625 9.757813v40.066406c-.003906 5.386718 4.371094 9.757812 9.765625 9.757812zm9.765625-40.066406h22.421875v20.550781h-22.421875zm0 0" fill="#4680FF"/><path d="m310.488281 164.191406h41.984375c5.394532 0 9.765625-4.371094 9.765625-9.757812v-40.066406c0-5.390626-4.371093-9.757813-9.765625-9.757813h-41.984375c-5.394531 0-9.765625 4.367187-9.765625 9.757813v40.066406c0 5.386718 4.371094 9.757812 9.765625 9.757812zm9.765625-40.066406h22.449219v20.550781h-22.449219zm0 0" fill="#4680FF"/><path d="m266.648438 189.222656h-41.953126c-5.394531 0-9.769531 4.371094-9.769531 9.757813v40.070312c0 5.386719 4.375 9.757813 9.769531 9.757813h41.953126c5.394531 0 9.769531-4.371094 9.769531-9.757813v-40.070312c0-5.386719-4.371094-9.757813-9.769531-9.757813zm-9.765626 40.070313h-22.421874v-20.554688h22.421874zm0 0" fill="#4680FF"/><path d="m353.496094 189.222656h-41.957032c-5.394531 0-9.765624 4.371094-9.765624 9.757813v40.070312c0 5.386719 4.371093 9.757813 9.765624 9.757813h41.957032c5.394531 0 9.765625-4.371094 9.765625-9.757813v-40.070312c0-5.386719-4.371094-9.757813-9.765625-9.757813zm-9.769532 40.070313h-22.421874v-20.554688h22.421874zm0 0" fill="#4680FF"/><path d="m505.9375 278.273438c-6.691406-22.957032-18.722656-47.109376-32.1875-64.609376-8.546875-11.113281-19.085938-22.476562-32.472656-22.480468-.003906 0-.007813 0-.007813 0-11.34375 0-20.5 7.898437-28.609375 17.550781v-151.835937l2.898438.003906c15.679687 0 28.4375-12.765625 28.4375-28.453125s-12.757813-28.449219-28.4375-28.449219h-256.605469c-15.679687 0-28.4375 12.761719-28.4375 28.449219s12.757813 28.453125 28.4375 28.453125h2.898437v43.667968h-132.585937c-16.136719 0-29.265625 13.121094-29.265625 29.25 0 13.449219 9.128906 24.800782 21.519531 28.207032v269.972656h-4.367187c-5.394532 0-9.765625 4.367188-9.765625 9.757812 0 5.386719 4.371093 9.757813 9.765625 9.757813h435.050781c5.394531 0 9.769531-4.371094 9.769531-9.757813 0-5.210937-4.089844-9.457031-9.238281-9.730468v-47.007813c31.484375-2.679687 45.875-18.296875 52.429687-31.59375 11.175782-22.660156 6.589844-51.199219.773438-71.152343zm-476.671875-158.1875h132.585937v19.472656h-132.585937c-5.367187 0-9.730469-4.367188-9.730469-9.734375 0-5.371094 4.363282-9.738281 9.730469-9.738281zm132.585937 307.914062h-120.800781v-268.925781h120.800781zm112.566407 0h-34.398438v-102.265625h34.398438zm53.933593 0h-34.398437v-102.265625h34.398437zm64.773438 0h-45.238281v-112.023438c0-5.386718-4.375-9.757812-9.769531-9.757812h-107.863282c-5.394531 0-9.769531 4.371094-9.769531 9.757812v112.023438h-39.097656v-371.097656h66.953125c5.394531 0 9.769531-4.371094 9.769531-9.757813 0-5.390625-4.375-9.757812-9.769531-9.757812h-89.386719c-4.824219 0-8.902344-4.09375-8.902344-8.9375 0-4.925781 3.992188-8.933594 8.902344-8.933594h256.605469c4.910156 0 8.902344 4.007813 8.902344 8.933594 0 4.84375-4.078126 8.9375-8.898438 8.9375l-89.417969-.027344s0 0-.003906 0c-5.390625 0-9.765625 4.367187-9.765625 9.753906-.003906 5.390625 4.367188 9.757813 9.761719 9.761719l66.988281.019531v181.292969c-11.730469 22.296875-19.246094 47.023438-20.691406 68.210938-1.785156 26.195312 5.355468 46.679687 20.691406 59.621093zm40.074219 0h-20.539063v-52.8125c4.871094 2.878906 11.40625 4.960938 20.539063 5.8125zm54.445312-87.199219c-5.867187 11.890625-17.601562 18.789063-34.910156 20.605469v-40.886719l14.445313-13.734375c3.910156-3.714844 4.0625-9.890625.34375-13.796875-3.71875-3.902343-9.902344-4.054687-13.808594-.339843l-.980469.929687v-31.191406c0-5.386719-4.371094-9.757813-9.765625-9.757813s-9.765625 4.371094-9.765625 9.757813v17.675781l-.945313-.902344c-3.90625-3.71875-10.089843-3.570312-13.808593.332032-3.722657 3.898437-3.574219 10.074218.328125 13.792968l14.425781 13.738282v12.753906l-7.882813-5.609375c-4.394531-3.125-10.492187-2.101563-13.621093 2.285156-3.128907 4.390625-2.105469 10.484375 2.289062 13.609375l19.214844 13.671875v17.667969c-17.921875-1.878906-30.140625-9.152344-36.347656-21.738282-12.007813-24.347656-1.800781-63.019531 13.324219-91.945312.078124-.152344.15625-.300781.234374-.449219 4.214844-8.003906 8.800782-15.25 13.386719-21.214843 9.769531-12.691407 14.894531-15.355469 17.46875-15.355469h.003907c2.542968 0 7.554687 2.578125 16.992187 14.855469 22.023437 28.628906 44.484375 84.605468 29.378906 115.246093zm0 0" fill="#4680FF"/><path d="m287.449219 37.386719h-.195313c-5.394531 0-9.765625 4.367187-9.765625 9.757812 0 5.386719 4.371094 9.757813 9.765625 9.757813h.195313c5.394531 0 9.765625-4.371094 9.765625-9.757813 0-5.390625-4.371094-9.757812-9.765625-9.757812zm0 0" fill="#4680FF"/></svg>
