<?xml version="1.0" encoding="iso-8859-1"?>
<!-- Generator: Adobe Illustrator 19.0.0, SVG Export Plug-In . SVG Version: 6.00 Build 0)  -->
<svg xmlns="http://www.w3.org/2000/svg" xmlns:xlink="http://www.w3.org/1999/xlink" version="1.1" id="Capa_1" x="0px" y="0px" viewBox="0 0 512 512" style="enable-background:new 0 0 512 512;" xml:space="preserve" width="512px" height="512px">
<g>
	<g>
		<g>
			<path d="M110.085,334.687v80.001c0,5.523,4.478,10,10,10h80.001c5.523,0,10-4.477,10-10v-80.001c0-5.523-4.478-10-10-10h-80.001     C114.563,324.687,110.085,329.164,110.085,334.687z M170.085,344.687h20.001v20h-20.001V344.687z M170.085,384.687h20.001v20.001     h-20.001V384.687z M130.085,344.687h20v20h-20V344.687z M130.085,384.687h20v20.001h-20V384.687z" fill="#4680FF"/>
			<path d="M502,224.058H361.919v-89.36l6.152,3.552c4.785,2.761,10.898,1.123,13.66-3.66c2.762-4.783,1.123-10.899-3.66-13.66     L227.99,34.28c-3.094-1.787-6.906-1.786-10,0L67.906,120.93c-4.783,2.761-6.422,8.877-3.66,13.66     c1.853,3.208,5.213,5.002,8.67,5.001c1.696,0,3.416-0.432,4.99-1.341l6.161-3.557v131.706l-79.065,45.65     c-4.783,2.761-6.422,8.878-3.66,13.66c2.762,4.783,8.878,6.423,13.66,3.66l6.158-3.556V469.06c0,5.523,4.478,10,10,10h257.852     h191.834c5.522,0,10-4.477,10-10V330.71H502c5.522,0,10-4.477,10-10v-86.652C512,228.535,507.522,224.058,502,224.058z      M392.003,244.058h40v66.652h-40V244.058z M372.003,244.058v66.652h-39.999v-66.652H372.003z M104.067,198.434h31.034     c5.522,0,10-4.477,10-10s-4.478-10-10-10h-31.034v-55.288L222.99,54.487l118.929,68.664v100.907H160.083     c-0.404,0-0.8,0.031-1.191,0.078c-0.101,0.012-0.2,0.03-0.3,0.045c-0.309,0.046-0.611,0.106-0.91,0.179     c-0.098,0.024-0.194,0.048-0.291,0.075c-0.362,0.101-0.718,0.218-1.063,0.358c-0.022,0.009-0.045,0.015-0.066,0.024     c-0.38,0.158-0.746,0.34-1.101,0.542c-0.025,0.014-0.053,0.023-0.078,0.038l-51.016,29.455V198.434z M252.006,244.058v31.525     l-54.603-31.525H252.006z M279.012,459.062H41.16V314.267l118.923-68.662l118.929,68.665V459.062z M272.006,287.13v-43.072     h39.998v66.166L272.006,287.13z M470.846,459.062H299.012v-19.677h171.834V459.062z M470.846,419.385H299.012v-93.569     l6.155,3.554c0.025,0.015,0.052,0.023,0.077,0.038c0.355,0.202,0.723,0.385,1.103,0.543c0.045,0.019,0.091,0.032,0.136,0.049     c0.318,0.127,0.644,0.235,0.977,0.329c0.12,0.034,0.24,0.064,0.361,0.093c0.264,0.064,0.531,0.115,0.803,0.157     c0.129,0.02,0.258,0.044,0.388,0.059c0.329,0.038,0.664,0.06,1.003,0.064c0.048,0.001,0.096,0.009,0.143,0.009     c0.008,0,0.015-0.001,0.022-0.001h160.666v18.979H429.81c-5.522,0-10,4.477-10,10s4.478,10,10,10h41.036V419.385z M492,310.71     h-39.997v-66.652H492V310.71z" fill="#4680FF"/>
			<path d="M200.492,198.434h45c5.522,0,10-4.477,10-10v-57.813c0-5.523-4.478-10-10-10h-45c-5.522,0-10,4.477-10,10v57.813     C190.492,193.957,194.97,198.434,200.492,198.434z M210.492,140.622h25v37.813h-25V140.622z" fill="#4680FF"/>
			<path d="M401.081,349.689h-0.236c-5.522,0-10,4.477-10,10s4.478,10,10,10h0.236c5.522,0,10-4.477,10-10     S406.603,349.689,401.081,349.689z" fill="#4680FF"/>
			<path d="M163.833,198.434h0.235c5.522,0,10-4.477,10-10s-4.478-10-10-10h-0.235c-5.522,0-10,4.477-10,10     S158.31,198.434,163.833,198.434z" fill="#4680FF"/>
		</g>
	</g>
</g>
<g>
</g>
<g>
</g>
<g>
</g>
<g>
</g>
<g>
</g>
<g>
</g>
<g>
</g>
<g>
</g>
<g>
</g>
<g>
</g>
<g>
</g>
<g>
</g>
<g>
</g>
<g>
</g>
<g>
</g>
</svg>
