<?xml version="1.0"?>
<svg xmlns="http://www.w3.org/2000/svg" height="512px" viewBox="-1 0 512 512" width="512px"><path d="m177.460938 172.804688c0-2.363282 1.792968-4.441407 4.53125-4.441407h19.558593c12.945313 0 23.242188 4.816407 23.242188 20.21875 0 10.582031-4.816407 16.628907-11.433594 19.179688l11.527344 20.882812c.378906.566407.472656 1.226563.472656 1.699219 0 3.683594-4.910156 7.652344-9.257813 7.652344-1.890624 0-3.6875-.757813-4.722656-2.738282l-12.945312-25.132812h-6.238282v22.769531c0 3.023438-3.683593 4.535157-7.367187 4.535157s-7.367187-1.511719-7.367187-4.535157zm14.734374 8.40625v17.574218h9.355469c5.292969 0 8.503907-2.171875 8.503907-8.785156s-3.210938-8.789062-8.503907-8.789062zm0 0" fill="#4680FF"/><path d="m247.371094 197.179688h14.175781c2.832031 0 4.4375 2.738281 4.4375 5.761718 0 2.550782-1.320313 5.574219-4.4375 5.574219h-14.175781v16.0625h25.320312c2.835938 0 4.441406 3.023437 4.441406 6.523437 0 3.019532-1.320312 6.328126-4.441406 6.328126h-33.632812c-3.214844 0-6.425782-1.511719-6.425782-4.535157v-59.996093c0-3.023438 3.210938-4.535157 6.425782-4.535157h33.632812c3.121094 0 4.441406 3.308594 4.441406 6.332031 0 3.496094-1.605468 6.519532-4.441406 6.519532h-25.320312zm0 0" fill="#4680FF"/><path d="m316.246094 233.460938-17.949219-32.691407v32.125c0 3.019531-3.6875 4.535157-7.371094 4.535157-3.6875 0-7.371093-1.515626-7.371093-4.535157v-59.996093c0-3.121094 3.6875-4.535157 7.371093-4.535157 5.289063 0 7.273438.472657 10.863281 7.367188l15.308594 29.195312v-32.125c0-3.117187 3.683594-4.4375 7.367188-4.4375 3.6875 0 7.371094 1.320313 7.371094 4.4375v60.09375c0 3.019531-3.6875 4.535157-7.371094 4.535157-3.398438 0-6.425782-.660157-8.21875-3.96875zm0 0" fill="#4680FF"/><path d="m382.945312 168.363281c3.117188 0 4.441407 3.398438 4.441407 6.519531 0 3.589844-1.605469 6.707032-4.441407 6.707032h-13.039062v51.304687c0 3.023438-3.683594 4.535157-7.367188 4.535157-3.6875 0-7.371093-1.511719-7.371093-4.535157v-51.304687h-13.039063c-2.832031 0-4.4375-3.117188-4.4375-6.707032 0-3.117187 1.320313-6.519531 4.4375-6.519531zm0 0" fill="#4680FF"/><path d="m280.109375 477.75c-.648437 0-1.3125-.070312-1.953125-.199219-.636719-.128906-1.269531-.320312-1.867188-.570312-.609374-.25-1.191406-.558594-1.730468-.921875-.550782-.359375-1.058594-.777344-1.519532-1.238282-.460937-.460937-.882812-.96875-1.238281-1.519531-.363281-.539062-.671875-1.121093-.921875-1.730469-.25-.601562-.441406-1.230468-.570312-1.871093s-.199219-1.300781-.199219-1.949219.070313-1.308594.199219-1.960938c.128906-.640624.320312-1.269531.570312-1.867187.25-.601563.558594-1.179687.921875-1.722656.355469-.550781.777344-1.058594 1.238281-1.519531.460938-.460938.96875-.878907 1.519532-1.25.539062-.359376 1.121094-.667969 1.730468-.917969.601563-.25 1.230469-.441407 1.867188-.570313 1.292969-.261718 2.621094-.261718 3.910156 0 .632813.128906 1.261719.320313 1.871094.570313.601562.25 1.179688.558593 1.71875.917969.554688.371093 1.0625.789062 1.523438 1.25.460937.460937.878906.96875 1.25 1.519531.359374.542969.667968 1.121093.917968 1.722656.25.597656.441406 1.230469.570313 1.867187.132812.652344.191406 1.3125.191406 1.960938s-.058594 1.3125-.191406 1.949219c-.128907.640625-.320313 1.273437-.570313 1.871093-.25.609376-.558594 1.191407-.917968 1.730469-.371094.550781-.789063 1.058594-1.25 1.519531-.460938.460938-.96875.878907-1.523438 1.238282-.539062.363281-1.117188.671875-1.71875.921875-.609375.25-1.238281.441406-1.871094.570312-.648437.128907-1.308594.199219-1.957031.199219zm0 0" fill="#4680FF"/><path d="m505.015625 339.730469-86.949219-63.871094c5.066406-.488281 9.03125-4.757813 9.03125-9.953125v-131.574219c0-5.523437-4.480468-10-10-10h-11.988281v-23.113281h71.992187c5.523438 0 10-4.476562 10-10v-41.996094c0-5.519531-4.476562-10-10-10h-368.34375v-29.222656c0-5.523438-4.476562-10-10-10h-41.996093c-5.519531 0-10 4.476562-10 10v29.222656h-36.761719c-5.523438 0-10 4.480469-10 10v41.996094c0 5.523438 4.476562 10 10 10h36.761719v331.800781c-27.878907 11.121094-46.761719 38.472657-46.761719 68.980469 0 5.523438 4.476562 10 10 10h473.792969c2.652343 0 5.195312-1.054688 7.070312-2.929688s2.929688-4.417968 2.929688-7.070312v-89.996094c1.609375 1.011719 3.453125 1.523438 5.304687 1.523438 1.539063 0 3.089844-.355469 4.515625-1.078125 3.363281-1.703125 5.484375-5.152344 5.484375-8.921875v-55.734375c0-3.183594-1.515625-6.175781-4.082031-8.0625zm-438.253906-319.730469h21.996093v19.222656h-21.996093zm422.335937 363.773438-94.710937-69.574219c-.21875-.160157-.445313-.3125-.671875-.453125-3.210938-1.980469-7.28125-1.980469-10.492188 0-.230468.140625-.453125.292968-.675781.453125l-94.707031 69.574219v-30.917969l100.628906-73.921875 100.628906 73.921875zm-380.339844-282.554688h46.351563v23.113281h-11.984375c-5.519531 0-10 4.476563-10 10v131.574219c0 5.523438 4.480469 10 10 10h215.679688l-86.882813 63.824219c-2.566406 1.886719-4.082031 4.878906-4.082031 8.0625v55.734375c0 3.769531 2.121094 7.21875 5.484375 8.921875.574219.292969 1.167969.523437 1.777343.695312-5.175781-1.023437-10.527343-1.558593-15.996093-1.558593-7.257813 0-14.402344.9375-21.328125 2.789062-18.605469-21.988281-46.191406-34.925781-75.15625-34.925781-19.488282 0-38.019532 5.582031-53.859375 16.011719v-294.242188zm174.386719 310.785156v3.160156c-2.167969-.660156-4.375-1.238281-6.613281-1.722656 2.28125.300782 4.621094-.191406 6.613281-1.4375zm123.953125-156.097656h-253.972656v-111.574219h253.972656zm-21.988281-131.574219h-210v-23.113281h210zm-210-43.113281v-21.996094h210v21.996094zm291.992187 0h-61.992187v-21.996094h61.992187zm-447.101562-21.996094h135.109375v21.996094h-135.109375zm26.761719 396.011719v36.765625h-25.824219c2.910156-15.40625 12.421875-28.855469 25.824219-36.765625zm20-354.015625h21.996093v390.78125h-21.996093zm41.996093 390.78125v-14.253906h131.46875c5.523438 0 10-4.476563 10-10 0-5.519532-4.476562-10-10-10h-131.46875v-36.84375c14.605469-13.863282 33.582032-21.453125 53.863282-21.453125 25.015625 0 48.742187 12.117187 63.472656 32.414062 2.628906 3.621094 7.34375 5.058594 11.539062 3.519531 6.863282-2.519531 14.089844-3.796874 21.46875-3.796874 33.730469 0 61.285157 26.925781 62.296876 60.414062zm263.28125 0v-55.558594h32.855469v55.558594zm52.855469 0v-65.558594c0-5.523437-4.476562-10-10-10h-52.855469c-5.519531 0-10 4.476563-10 10v65.558594h-10.632812c-.652344-28.414062-15.769531-53.320312-38.261719-67.617188v-27.035156l85.324219-62.679687 85.324219 62.679687v94.652344zm0 0" fill="#4680FF"/></svg>
