<?xml version="1.0" encoding="iso-8859-1"?>
<!-- Generator: Adobe Illustrator 19.0.0, SVG Export Plug-In . SVG Version: 6.00 Build 0)  -->
<svg xmlns="http://www.w3.org/2000/svg" xmlns:xlink="http://www.w3.org/1999/xlink" version="1.1" id="Capa_1" x="0px" y="0px" viewBox="0 0 512 512" style="enable-background:new 0 0 512 512;" xml:space="preserve" width="512px" height="512px">
<g>
	<g>
		<path d="M512,70.862V25.949H80.842V0H35.93v25.949H0v44.912h35.93V512H512V323.969l-101.302-71.127l-60.881,42.747l-60.881-42.747    l-60.881,42.747l-60.881-42.747l-86.331,60.616V70.862h46.908v22.955H94.815v145.715H512V93.817h-32.936V70.862H512z     M479.064,40.92h17.965v14.971h-17.965V40.92z M35.93,55.891H14.971V40.92H35.93V55.891z M65.871,323.969v173.06H50.901V14.971    h14.971V323.969z M187.634,497.029h-54.893V384.25h54.893V497.029z M316.382,497.029h-54.893V378.261h54.893V497.029z     M445.131,497.029h-54.893V384.25h54.893V497.029z M410.698,271.134l86.331,60.616v165.279h-36.928v-127.75h-69.864v-27.017    l19.153,13.448l8.602-12.252l-55.15-38.722L410.698,271.134z M288.936,271.134l86.331,60.616v165.279h-43.914V363.29h-84.834    v133.739h-43.914V331.75L288.936,271.134z M167.173,271.134l47.855,33.6l-55.15,38.722l8.602,12.252l19.154-13.448v27.017H117.77    v127.75H80.842V331.75L167.173,271.134z M142.721,40.92h321.372v14.971H142.721V40.92z M142.721,70.862h321.372v22.955H142.721    V70.862z M80.842,55.891V40.92h46.908v14.971H80.842z M497.029,108.788v115.774H109.786V108.788H497.029z" fill="#4680FF"/>
	</g>
</g>
<g>
	<g>
		<g>
			
				<rect x="406.53" y="304.279" transform="matrix(-0.8184 -0.5746 0.5746 -0.8184 601.832 813.712)" width="45.91" height="14.97" fill="#4680FF"/>
			
				<rect x="460.063" y="329.905" transform="matrix(0.5746 -0.8184 0.8184 0.5746 -78.1401 526.6387)" width="14.97" height="17.167" fill="#4680FF"/>
		</g>
	</g>
</g>
<g>
	<g>
		<g>
			
				<rect x="102.838" y="329.905" transform="matrix(-0.5746 -0.8184 0.8184 -0.5746 -103.3094 623.2817)" width="14.97" height="17.167" fill="#4680FF"/>
			
				<rect x="125.431" y="304.279" transform="matrix(0.8184 -0.5746 0.5746 0.8184 -152.2044 141.8796)" width="45.91" height="14.97" fill="#4680FF"/>
		</g>
	</g>
</g>
<g>
	<g>
		<g>
			<rect x="346.324" y="430.16" width="14.971" height="14.971" fill="#4680FF"/>
			<rect x="346.324" y="400.218" width="14.971" height="14.971" fill="#4680FF"/>
			<rect x="346.324" y="370.277" width="14.971" height="14.971" fill="#4680FF"/>
		</g>
	</g>
</g>
<g>
	<g>
		<g>
			<rect x="216.577" y="370.277" width="14.971" height="14.971" fill="#4680FF"/>
			<rect x="216.577" y="430.16" width="14.971" height="14.971" fill="#4680FF"/>
			<rect x="216.577" y="400.218" width="14.971" height="14.971" fill="#4680FF"/>
		</g>
	</g>
</g>
<g>
	<g>
		<rect x="247.517" y="326.363" width="82.838" height="14.971" fill="#4680FF"/>
	</g>
</g>
<g>
	<g>
		<path d="M184.473,121.762h-53.728v51.899h53.728c14.309,0,25.949-11.641,25.949-25.949S198.782,121.762,184.473,121.762z     M184.473,158.69h-38.757v-21.957h38.757c6.053,0,10.979,4.925,10.979,10.979C195.451,153.765,190.526,158.69,184.473,158.69z" fill="#4680FF"/>
	</g>
</g>
<g>
	<g>
		<path d="M182.976,158.69h-52.231v48.405h14.971v-33.435h37.26c6.88,0,12.476,5.596,12.476,12.476v20.959h14.971h0v-20.959    C210.422,171.002,198.109,158.69,182.976,158.69z" fill="#4680FF"/>
	</g>
</g>
<g>
	<g>
		<rect x="229.881" y="157.692" width="63.875" height="14.971" fill="#4680FF"/>
	</g>
</g>
<g>
	<g>
		<polygon points="293.759,136.733 293.759,121.762 222.399,121.762 222.399,207.595 293.759,207.595 293.759,192.624     237.369,192.624 237.369,136.733   " fill="#4680FF"/>
	</g>
</g>
<g>
	<g>
		<polygon points="370.11,122.261 370.11,181.461 321.681,121.762 304.239,121.762 304.239,208.094 319.21,208.094 319.21,142.48     372.033,207.595 385.081,207.595 385.081,122.261   " fill="#4680FF"/>
	</g>
</g>
<g>
	<g>
		<rect x="395.557" y="122.76" width="82.838" height="14.971" fill="#4680FF"/>
	</g>
</g>
<g>
	<g>
		<rect x="429.491" y="130.246" width="14.971" height="76.85" fill="#4680FF"/>
	</g>
</g>
<g>
</g>
<g>
</g>
<g>
</g>
<g>
</g>
<g>
</g>
<g>
</g>
<g>
</g>
<g>
</g>
<g>
</g>
<g>
</g>
<g>
</g>
<g>
</g>
<g>
</g>
<g>
</g>
<g>
</g>
</svg>
