<?xml version="1.0" encoding="iso-8859-1"?>
<!-- Generator: Adobe Illustrator 19.0.0, SVG Export Plug-In . SVG Version: 6.00 Build 0)  -->
<svg xmlns="http://www.w3.org/2000/svg" xmlns:xlink="http://www.w3.org/1999/xlink" version="1.1" id="Capa_1" x="0px" y="0px" viewBox="0 0 497.728 497.728" style="enable-background:new 0 0 497.728 497.728;" xml:space="preserve" width="512px" height="512px">
<g>
	<g>
		<path d="M248.864,0l-104,72V49.728h-64v66.576l-48,33.232V217l24-16.616v233.344h48v64h288v-64h48V200.376l24,16.616v-67.456    L248.864,0z M96.864,65.728h32v17.344l-32,22.152V65.728z M376.864,481.728h-256v-224h80v-0.336c4.928,3.72,10.2,7.048,16,9.584    v6.752h-80v160h224v-160h-80v-6.752c5.8-2.528,11.072-5.864,16-9.584v0.336h80V481.728z M229.552,305.728l-16,16l16,16    l-12.688,12.688v22.624l32,32l32-32v-83.312h64v128h-192v-128h64v3.312L229.552,305.728z M270.192,254l-5.328,1.888v110.528    l-16,16l-16-16v-9.376l19.312-19.312l-16-16l16-16l-19.312-19.312v-30.528l-5.328-1.88c-25.52-9.048-42.672-33.264-42.672-60.28    c0-35.288,28.712-64,64-64c35.288,0,64,28.712,64,64C312.864,220.744,295.712,244.96,270.192,254z M424.864,417.728h-32v-176    h-80.328c10.248-13.576,16.328-30.24,16.328-48c0-44.112-35.888-80-80-80s-80,35.888-80,80c0,17.76,6.08,34.424,16.328,48h-80.328    v176h-32V189.304l176-121.848l176,121.848V417.728z M448.864,186.464L248.864,48l-200,138.464v-28.536l200-138.472l200,138.472    V186.464z" fill="#4680FF"/>
	</g>
</g>
<g>
	<g>
		<path d="M248.864,145.728c-17.648,0-32,14.352-32,32s14.352,32,32,32s32-14.352,32-32S266.512,145.728,248.864,145.728z     M248.864,193.728c-8.824,0-16-7.176-16-16c0-8.824,7.176-16,16-16c8.824,0,16,7.176,16,16    C264.864,186.552,257.688,193.728,248.864,193.728z" fill="#4680FF"/>
	</g>
</g>
<g>
	<g>
		<rect x="136.864" y="449.728" width="192" height="16" fill="#4680FF"/>
	</g>
</g>
<g>
	<g>
		<rect x="344.864" y="449.728" width="16" height="16" fill="#4680FF"/>
	</g>
</g>
<g>
</g>
<g>
</g>
<g>
</g>
<g>
</g>
<g>
</g>
<g>
</g>
<g>
</g>
<g>
</g>
<g>
</g>
<g>
</g>
<g>
</g>
<g>
</g>
<g>
</g>
<g>
</g>
<g>
</g>
</svg>
