<svg xmlns="http://www.w3.org/2000/svg" xmlns:xlink="http://www.w3.org/1999/xlink" width="100" height="100" viewBox="0 0 100 100">
    <defs>
        <path id="a" d="M.784.183h9.858v17.962H.784z"/>
    </defs>
    <g fill="none" fill-rule="evenodd">
        <path fill="#FFF" d="M66.145 22.574H29.493a3.243 3.243 0 0 0-3.243 3.242V75.65a3.243 3.243 0 0 0 3.243 3.242h33.299a3.242 3.242 0 0 0 3.241-3.242V29.06"/>
        <path fill="#E1FFFD" d="M66.033 45.21V25.492a3.241 3.241 0 0 1 3.242-3.242h.874a3.242 3.242 0 0 1 3.242 3.242v18.705"/>
        <path fill="#FFEDBB" d="M40.892 32.707h-5.413a3.242 3.242 0 0 0-3.243 3.242v5.407a3.244 3.244 0 0 0 3.243 3.243h5.413a3.244 3.244 0 0 0 3.242-3.243v-5.407a3.242 3.242 0 0 0-3.242-3.242"/>
        <path fill="#2B8E8E" d="M59.834 33.957H49.379a1.25 1.25 0 1 1 0-2.5h10.455a1.25 1.25 0 0 1 0 2.5M59.834 45.849H49.379a1.25 1.25 0 1 1 0-2.5h10.455a1.25 1.25 0 0 1 0 2.5M59.834 57.74H32.235a1.25 1.25 0 0 1 0-2.5h27.599a1.25 1.25 0 0 1 0 2.5M59.834 69.632H32.235a1.25 1.25 0 0 1 0-2.5h27.599a1.25 1.25 0 0 1 0 2.5"/>
        <path fill="#2B8E8E" d="M62.791 79.817H29.492A4.498 4.498 0 0 1 25 75.325V25.492A4.498 4.498 0 0 1 29.492 21h39.896a1.25 1.25 0 1 1 0 2.5H29.492a1.994 1.994 0 0 0-1.992 1.992v49.833c0 1.098.894 1.992 1.992 1.992h33.299a1.994 1.994 0 0 0 1.992-1.992v-46.59a1.25 1.25 0 0 1 2.5 0v46.59a4.498 4.498 0 0 1-4.492 4.492"/>
        <path fill="#2B8E8E" d="M70.15 46.46h-4.117a1.25 1.25 0 1 1 0-2.5h4.116a1.994 1.994 0 0 0 1.992-1.992v-5.736a1.25 1.25 0 0 1 2.5 0v5.736a4.498 4.498 0 0 1-4.492 4.492"/>
        <g transform="translate(64 20.817)">
            <mask id="b" fill="#fff">
                <use xlink:href="#a"/>
            </mask>
            <path fill="#2B8E8E" d="M9.392 18.145c-.69 0-1.25-.56-1.25-1.25V4.675A1.995 1.995 0 0 0 6.15 2.683h-.874a1.994 1.994 0 0 0-1.992 1.992v5.736a1.25 1.25 0 0 1-2.5 0V4.675A4.498 4.498 0 0 1 5.276.183h.874a4.498 4.498 0 0 1 4.492 4.492v12.22c0 .69-.56 1.25-1.25 1.25" mask="url(#b)"/>
        </g>
        <path fill="#F9A01F" d="M44.134 42.14c-.69 0-1.25-.56-1.25-1.25v-4.94a1.995 1.995 0 0 0-1.992-1.993h-5.413a1.995 1.995 0 0 0-1.993 1.993v4.94a1.25 1.25 0 0 1-2.5 0v-4.94a4.498 4.498 0 0 1 4.493-4.493h5.413a4.498 4.498 0 0 1 4.492 4.493v4.94c0 .69-.56 1.25-1.25 1.25"/>
        <path fill="#F9A01F" d="M40.892 45.849h-5.413a4.498 4.498 0 0 1-4.493-4.492v-4.941a1.25 1.25 0 1 1 2.5 0v4.94c0 1.099.894 1.993 1.993 1.993h5.413a1.994 1.994 0 0 0 1.992-1.992v-4.941a1.25 1.25 0 0 1 2.5 0v4.94a4.498 4.498 0 0 1-4.492 4.493"/>
    </g>
</svg>
