<svg xmlns="http://www.w3.org/2000/svg" xmlns:xlink="http://www.w3.org/1999/xlink" width="43" height="44" viewBox="0 0 43 44">
    <defs>
        <path id="a" d="M.809.897h13.074v7.446H.809z"/>
        <path id="c" d="M.719.645h7.445v13.074H.719z"/>
        <path id="e" d="M0 .928h7.446v13.074H0z"/>
    </defs>
    <g fill="none" fill-rule="evenodd">
        <path fill="#313296" d="M10.235 6.888a4.373 4.373 0 1 1-8.747 0 4.373 4.373 0 0 1 8.747 0M2.239 11.698s1.188 2.064 5.38 1.001c0 0 .376 1.44-1.252 2.878-1.625 1.438-3.316 2.502-3.627 5.13 0 0-2.816-3.566-.502-9.009"/>
        <g transform="translate(10 .103)">
            <mask id="b" fill="#fff">
                <use xlink:href="#a"/>
            </mask>
            <path fill="#313296" d="M.809 2.963s1.752 2.377.876 5.38c0 0 2.439-.751 4.254-2.316 1.814-1.563 5.88-5.003 7.944-4.753 0 0-2.44-.564-5.942-.313-3.503.25-6.631 1.5-7.132 2.002" mask="url(#b)"/>
        </g>
        <path fill="#00A54F" d="M36.277 11.173a4.373 4.373 0 1 1 0-8.747 4.373 4.373 0 0 1 0 8.747M31.466 3.178s-2.064 1.188-1.001 5.38c0 0-1.438.375-2.878-1.251-1.438-1.627-2.502-3.316-5.129-3.628 0 0 3.566-2.815 9.008-.501"/>
        <g transform="translate(34 11.103)">
            <mask id="d" fill="#fff">
                <use xlink:href="#c"/>
            </mask>
            <path fill="#00A54F" d="M6.099.645S3.722 2.397.719 1.52c0 0 .75 2.439 2.315 4.254 1.563 1.813 5.004 5.88 4.753 7.944 0 0 .564-2.44.314-5.943C7.85 4.273 6.599 1.145 6.099.645" mask="url(#d)"/>
        </g>
        <path fill="#313296" d="M31.741 37.216a4.373 4.373 0 1 1 8.747 0 4.373 4.373 0 0 1-8.747 0M39.736 32.405s-1.188-2.064-5.38-1c0 0-.375-1.44 1.252-2.879 1.627-1.438 3.316-2.502 3.628-5.13 0 0 2.815 3.567.5 9.01M31.166 41.037s-1.752-2.377-.876-5.379c0 0-2.439.75-4.254 2.315-1.813 1.563-5.88 5.003-7.944 4.753 0 0 2.44.564 5.943.313 3.503-.25 6.631-1.501 7.131-2.002"/>
        <path fill="#00A54F" d="M5.888 32.68a4.373 4.373 0 1 1 0 8.746 4.373 4.373 0 0 1 0-8.746M10.698 40.676s2.064-1.188 1.001-5.38c0 0 1.438-.376 2.878 1.25 1.438 1.627 2.502 3.317 5.13 3.629 0 0-3.567 2.815-9.009.5"/>
        <g transform="translate(0 18.103)">
            <mask id="f" fill="#fff">
                <use xlink:href="#e"/>
            </mask>
            <path fill="#00A54F" d="M2.066 14.002s2.377-1.752 5.38-.876c0 0-.75-2.439-2.315-4.254C3.568 7.058.128 2.992.378.928c0 0-.564 2.439-.314 5.942.25 3.503 1.502 6.631 2.002 7.132" mask="url(#f)"/>
        </g>
        <path fill="#00A54F" d="M18.67 16.474v3.295s-1.46-1.668-2.127-2.42c-.667-.75-.917-1.375-.876-2.21.042-.833.955-1.834 1.5-1.96.544-.125 6.05 0 6.05 0v-1.431l2.71 2.89-2.836 3.046v-1.085s.068-.584-.633-.584h-2.996c-.458 0-.792.126-.792.459M26.44 19.723h-3.294s1.668-1.46 2.419-2.127c.75-.668 1.376-.918 2.21-.876.834.042 1.835.955 1.96 1.499.126.544 0 6.05 0 6.05h1.432l-2.891 2.71-3.045-2.836h1.085s.584.068.584-.633v-2.995c0-.46-.126-.792-.46-.792M23.234 27.379v-3.294s1.46 1.668 2.127 2.419c.667.75.918 1.376.876 2.21-.042.834-.955 1.835-1.5 1.96-.544.125-6.05 0-6.05 0v1.432l-2.71-2.891 2.836-3.045v1.084s-.068.584.634.584h2.995c.458 0 .792-.125.792-.46M15.534 24.214h3.295s-1.668 1.46-2.419 2.127c-.75.668-1.376.918-2.21.876-.834-.041-1.835-.954-1.96-1.5-.125-.543 0-6.048 0-6.048h-1.432l2.891-2.711 3.045 2.836H15.66s-.584-.068-.584.633v2.995c0 .459.125.792.458.792"/>
    </g>
</svg>
