<svg xmlns="http://www.w3.org/2000/svg" width="32" height="32" viewBox="0 0 32 32">
    <g fill="#36454F" fill-rule="nonzero">
        <path d="M16 0C7.163 0 0 7.164 0 16s7.163 16 16 16c8.836 0 16-7.164 16-16 0-8.837-7.164-16-16-16zm8.039 13.152l-3.913 3.913a2.232 2.232 0 0 1-1.59.659c-.6 0-1.164-.234-1.588-.658l-.153-.154-.417.417.153.153a2.25 2.25 0 0 1 0 3.178l-3.913 3.913a2.232 2.232 0 0 1-1.589.658c-.6 0-1.164-.234-1.59-.658l-1.478-1.48a2.25 2.25 0 0 1 0-3.177l3.913-3.913a2.232 2.232 0 0 1 1.59-.658c.6 0 1.164.233 1.588.658l.153.153.417-.417-.153-.153a2.25 2.25 0 0 1 0-3.177l3.913-3.914a2.233 2.233 0 0 1 1.59-.658c.6 0 1.163.234 1.588.658l1.48 1.48a2.25 2.25 0 0 1-.001 3.177z"/>
        <path d="M15.204 18.502l-.756.757-1.174-1.173.757-.757-.153-.153a.584.584 0 0 0-.83 0L9.135 21.09a.588.588 0 0 0 0 .83l1.479 1.48a.601.601 0 0 0 .83 0l3.913-3.913a.588.588 0 0 0 0-.83l-.153-.154zM21.386 9.669a.584.584 0 0 0-.831 0l-3.913 3.913a.589.589 0 0 0 0 .83l.153.153 1.16-1.16 1.174 1.173-1.16 1.16.152.154a.601.601 0 0 0 .83 0l3.914-3.913a.588.588 0 0 0 0-.83l-1.48-1.48z"/>
    </g>
</svg>
