<svg xmlns="http://www.w3.org/2000/svg" xmlns:xlink="http://www.w3.org/1999/xlink" width="100" height="100" viewBox="0 0 100 100">
    <defs>
        <path id="a" d="M.025.532h5.468v4.027H.025z"/>
    </defs>
    <g fill="none" fill-rule="evenodd">
        <path fill="#FFF" d="M39.88 34.367c3.747-2.679 5.24-6.73 8.513-12.117 4.177-6.875 12.717-8.255 16.594-6.375 9.285 4.5 13.417 24.315 3.908 42.041C52.25 88.941 24.331 91.25 15.437 71.152c-3.66-8.27-.096-19.117 5.047-25.87 4.086-5.366 9.645-6.64 15.272-8.83"/>
        <path fill="#FFEDBB" d="M36.496 61.608c.011 3.12-2.328 5.656-5.225 5.668-2.896.012-5.252-2.508-5.262-5.626-.01-3.119 2.33-5.656 5.224-5.668 2.897-.012 5.252 2.507 5.263 5.626"/>
        <path fill="#F9A01F" d="M31.254 57.232h-.016c-2.202.01-3.988 1.99-3.979 4.414.004 1.191.434 2.306 1.212 3.137.75.802 1.737 1.243 2.78 1.243h.016c2.202-.009 3.988-1.989 3.98-4.414-.005-1.192-.435-2.306-1.213-3.137-.75-.802-1.737-1.243-2.78-1.243zm-.003 11.294c-1.743 0-3.378-.722-4.605-2.035-1.21-1.294-1.88-3.012-1.887-4.837-.013-3.802 2.89-6.907 6.47-6.922h.025c1.743 0 3.378.722 4.605 2.035 1.211 1.294 1.881 3.012 1.887 4.837.013 3.802-2.888 6.907-6.47 6.922h-.025z"/>
        <path fill="#FFEDBB" d="M66.205 43.68c.01 2.537-1.894 4.6-4.249 4.609-2.355.01-4.272-2.04-4.28-4.575-.008-2.536 1.894-4.6 4.25-4.61 2.354-.008 4.27 2.04 4.28 4.577"/>
        <path fill="#F9A01F" d="M61.94 40.355h-.01c-1.661.007-3.01 1.512-3.004 3.355.003.91.33 1.76.923 2.392.566.606 1.308.938 2.09.938h.013c1.663-.007 3.01-1.511 3.004-3.355-.003-.91-.331-1.76-.923-2.394-.566-.603-1.308-.936-2.092-.936zm-.001 9.184c-1.482 0-2.872-.614-3.915-1.729-1.025-1.096-1.593-2.549-1.598-4.093-.01-3.22 2.455-5.85 5.495-5.862h.02c1.483 0 2.874.613 3.918 1.729 1.024 1.095 1.592 2.548 1.597 4.092.01 3.221-2.453 5.852-5.494 5.863h-.023z"/>
        <path fill="#FFEDBB" d="M80.057 72.9c1.905.674 5.883-2.089 7.553-7.622 2.023-8.715-.867-14.902-4.924-13.918-6.437 1.562-1.802 8.218-3.087 12.702-1.033 3.606-3.495 7.442.458 8.838"/>
        <path fill="#F9A01F" d="M83.516 52.759c-.155 0-.313.02-.477.06-2.603.63-2.634 2.01-2.06 5.794.298 1.953.604 3.97.062 5.863-.215.753-.483 1.496-.742 2.216-.55 1.528-1.172 3.26-.797 4.05.14.296.495.546 1.055.745.088.03.45.042 1.075-.276 1.427-.723 3.473-2.824 4.542-6.366 1.32-5.701.324-9.877-1.26-11.444-.432-.43-.893-.642-1.398-.642m-2.834 21.743c-.395 0-.772-.062-1.125-.187-1.34-.474-2.27-1.243-2.765-2.286-.91-1.918-.1-4.172.684-6.353.242-.673.493-1.37.68-2.026.363-1.263.106-2.953-.142-4.585-.502-3.302-1.19-7.826 4.318-9.162 1.719-.415 3.383.069 4.695 1.366 2.696 2.67 3.479 8.168 2.044 14.348-1.367 4.539-4.034 7.232-6.083 8.27-.806.408-1.586.615-2.306.615"/>
        <g transform="translate(86 65.333)">
            <mask id="b" fill="#fff">
                <use xlink:href="#a"/>
            </mask>
            <path fill="#F9A01F" d="M3.992 4.559c-.238 0-.479-.057-.704-.177a13.05 13.05 0 0 1-.657-.378c-.508-.303-.815-.504-1.085-.472h-.02a1.5 1.5 0 0 1-.02-3h.05c1.118 0 1.95.499 2.62.9.168.102.34.206.522.304a1.5 1.5 0 0 1-.706 2.823" mask="url(#b)"/>
        </g>
        <path fill="#F9A01F" d="M76.09 60.04a1.501 1.501 0 0 1-.299-2.97l.371-.078c.884-.189 1.883-.402 2.772-.243a1.5 1.5 0 0 1-.53 2.953c-.303-.056-1.094.113-1.616.224l-.397.084c-.1.02-.202.03-.302.03M86.554 53.252a1.5 1.5 0 0 1-1.356-2.139c.353-.75.68-1.525.973-2.306a1.5 1.5 0 1 1 2.809 1.052 34.265 34.265 0 0 1-1.068 2.532 1.5 1.5 0 0 1-1.358.86"/>
        <path fill="#2B8E8E" d="M34.674 85.401c-.308 0-.614-.006-.921-.018-8.651-.327-15.744-5.33-19.459-13.725-3.907-8.825-.046-20.25 5.195-27.133 3.649-4.79 8.465-6.543 13.122-8.236.892-.325 1.791-.652 2.692-1.002a1.25 1.25 0 0 1 .906 2.33c-.918.357-1.834.69-2.743 1.021-4.517 1.643-8.784 3.195-11.988 7.402-4.81 6.315-8.394 16.71-4.899 24.606 3.315 7.488 9.609 11.95 17.269 12.24 12.232.478 25.237-9.33 33.945-25.56 6.299-11.742 6.06-23.586 3.735-30.755-1.522-4.695-4.039-8.095-7.085-9.57-3.507-1.702-11.268-.215-14.982 5.898a117.264 117.264 0 0 0-2.202 3.823c-2.03 3.634-3.634 6.504-6.652 8.661a1.25 1.25 0 0 1-1.454-2.033c2.563-1.832 4.045-4.487 5.923-7.847.689-1.233 1.401-2.508 2.248-3.903 4.493-7.392 13.785-8.996 18.208-6.85 3.666 1.777 6.64 5.701 8.374 11.05 3.169 9.773 1.67 22.305-3.91 32.706-8.949 16.682-22.407 26.895-35.322 26.895"/>
        <path fill="#2B8E8E" d="M54.736 61.5c-.194 0-.39-.045-.572-.139a44.394 44.394 0 0 1-1.287-.697c-.492-.273-.989-.549-1.483-.795a1.25 1.25 0 0 1 1.114-2.238c.53.264 1.057.556 1.581.848.41.226.818.453 1.22.66a1.248 1.248 0 0 1-.573 2.361M52.04 31.108a4.52 4.52 0 0 1-.556-.035 1.25 1.25 0 0 1-1.083-1.398 1.262 1.262 0 0 1 1.398-1.083c.438.055.862-.047 1.233-.297a1.255 1.255 0 0 1 1.736.34c.385.572.233 1.35-.339 1.735a4.247 4.247 0 0 1-2.39.738M27.581 40.166a1.25 1.25 0 0 1-1.142-.738l-2.32-5.166a1.25 1.25 0 0 1 2.281-1.024l2.321 5.166a1.252 1.252 0 0 1-1.14 1.762M46.923 25c-.386 0-.767-.178-1.012-.515-.127-.108-.956-.616-1.504-.952a29.98 29.98 0 0 1-1.456-.929 1.25 1.25 0 0 1 1.444-2.041c.338.239.828.538 1.319.838 1.341.823 1.917 1.199 2.219 1.614A1.25 1.25 0 0 1 46.923 25M71.835 23.333a1.25 1.25 0 0 1-.437-2.421c.642-.24 1.372-.857 2.077-1.455.286-.241.566-.478.84-.692a1.251 1.251 0 0 1 1.54 1.97c-.25.195-.504.41-.764.63-.829.701-1.768 1.497-2.819 1.889a1.239 1.239 0 0 1-.437.079M69.204 68.166c-.34 0-.68-.139-.927-.411-.592-.653-2.428-1.947-3.555-2.583a1.25 1.25 0 1 1 1.228-2.178c1.191.672 3.307 2.117 4.181 3.083a1.25 1.25 0 0 1-.927 2.089M41.817 91.333a1.25 1.25 0 0 1-1.175-.823c-.327-.9-1.387-4.048-1.313-6.793.018-.692.626-1.235 1.283-1.217.69.019 1.235.594 1.217 1.283-.05 1.832.568 4.236 1.163 5.873a1.252 1.252 0 0 1-1.175 1.677M10.251 73.5a1.25 1.25 0 0 1-.635-2.327c.58-.342 1.166-.592 1.734-.835.735-.314 1.428-.61 1.98-1.059a1.253 1.253 0 0 1 1.76.183 1.252 1.252 0 0 1-.184 1.759c-.823.668-1.713 1.049-2.573 1.416-.519.221-1.008.43-1.449.69a1.245 1.245 0 0 1-.633.173M62.248 15.167c-.69 0-1.25-.56-1.25-1.25V10.25a1.25 1.25 0 0 1 2.5 0v3.667c0 .69-.56 1.25-1.25 1.25"/>
    </g>
</svg>
