<svg xmlns="http://www.w3.org/2000/svg" xmlns:xlink="http://www.w3.org/1999/xlink" width="100" height="100" viewBox="0 0 100 100">
    <defs>
        <path id="a" d="M0 .19h57.633V30H0z"/>
        <path id="c" d="M.164.129H43.1V31.52H.164z"/>
    </defs>
    <g fill="none" fill-rule="evenodd">
        <path fill="#E1FFFD" d="M22.255 86.588S21.34 59.31 49.361 59.31s28.021 27.277 28.021 27.277-9.846.033-28.021.033c-18.177 0-27.108-.033-27.108-.033"/>
        <path fill="#F9A01F" d="M63.318 75.855a1.5 1.5 0 0 1-1.5-1.5V62.82a1.5 1.5 0 0 1 3 0v11.534a1.5 1.5 0 0 1-1.5 1.5"/>
        <path fill="#F9A01F" d="M63.318 73.176a3.404 3.404 0 0 0-3.4 3.4 3.404 3.404 0 0 0 3.4 3.4c1.875 0 3.4-1.525 3.4-3.4s-1.525-3.4-3.4-3.4m0 9.8a6.407 6.407 0 0 1-6.4-6.4c0-3.53 2.87-6.4 6.4-6.4 3.529 0 6.4 2.87 6.4 6.4a6.407 6.407 0 0 1-6.4 6.4M31.877 83.416a1.5 1.5 0 0 1-1.5-1.5v-6.234c0-6.932 4.775-7.761 4.979-7.792l.046-.007v-5.575a1.5 1.5 0 1 1 3 0v7.063a1.5 1.5 0 0 1-1.5 1.5h-1.154c-.444.125-2.371.895-2.371 4.811v6.234a1.5 1.5 0 0 1-1.5 1.5"/>
        <path fill="#F9A01F" d="M41.93 83.416a1.5 1.5 0 0 1-1.5-1.5v-6.234c0-3.874-1.885-4.669-2.38-4.811h-1.147a1.5 1.5 0 0 1 0-3h1.316c.078 0 .155.006.232.019.204.031 4.98.86 4.98 7.792v6.234a1.5 1.5 0 0 1-1.5 1.5"/>
        <g transform="translate(21 57.871)">
            <mask id="b" fill="#fff">
                <use xlink:href="#a"/>
            </mask>
            <path fill="#2B8E8E" d="M2.526 27.47c3.048.01 11.609.03 25.836.03 14.339 0 23.493-.02 26.717-.03-.376-5.242-3.35-24.78-26.717-24.78-8.04 0-14.362 2.323-18.794 6.905-5.946 6.149-6.897 14.74-7.042 17.876M28.362 30c-18.18 0-27.112-.033-27.112-.033a1.251 1.251 0 0 1-1.245-1.208C-.012 28.25-.32 16.223 7.77 7.858 12.69 2.77 19.619.19 28.36.19c23.154 0 29.272 18.66 29.272 28.527 0 .689-.556 1.248-1.246 1.25 0 0-9.847.033-28.025.033" mask="url(#b)"/>
        </g>
        <path fill="#2B8E8E" d="M49.817 87.546c-.69 0-1.25-.56-1.25-1.25V67.769a1.25 1.25 0 1 1 2.5 0v18.527c0 .69-.56 1.25-1.25 1.25"/>
        <path fill="#2B8E8E" d="M49.817 69.019c-.354 0-.694-.151-.932-.416l-6.709-7.498a1.252 1.252 0 0 1 1.864-1.668l5.705 6.377 4.856-6.306a1.25 1.25 0 0 1 1.981 1.526l-5.775 7.498a1.248 1.248 0 0 1-.944.486h-.046"/>
        <path fill="#F9A01F" d="M49.35 22.475c-8.607 0-15.609 7.002-15.609 15.609s7.002 15.609 15.61 15.609c8.605 0 15.607-7.002 15.607-15.61 0-8.606-7.002-15.608-15.608-15.608m0 34.218c-10.262 0-18.609-8.348-18.609-18.61 0-10.26 8.347-18.608 18.61-18.608 10.26 0 18.607 8.348 18.607 18.609 0 10.26-8.347 18.609-18.608 18.609"/>
        <path fill="#FFEDBB" d="M33.703 25.454c-4.71 4.736-5.692 12.354-.996 17.437-.466-4.807 2.079-9.14 4.879-10.919 0 0 4.367 1.658 11.764 1.658 7.103 0 9.478-2.345 12.269-2.88 1.042 4.041 4.668 5.338 4.84 9.458 4.869-4.875 7.296-25.708-17.84-25.708-13.74 0-14.916 10.954-14.916 10.954"/>
        <g transform="translate(28 12.871)">
            <mask id="d" fill="#fff">
                <use xlink:href="#c"/>
            </mask>
            <path fill="#F9A01F" d="M20.619 3.129c-12.251 0-13.383 9.222-13.425 9.614a1.5 1.5 0 0 1-.428.898c-2.924 2.941-4.445 7.562-3.132 11.661.906-3.345 2.97-6.085 5.147-7.468.4-.253.897-.303 1.337-.136.039.015 4.245 1.561 11.232 1.561 4.566 0 7.035-1.026 9.018-1.851.997-.414 1.939-.804 2.969-1.003a1.508 1.508 0 0 1 1.734 1.099c.396 1.532 1.264 2.624 2.184 3.781.588.74 1.215 1.529 1.718 2.456 1.242-2.992 1.714-7.522.055-11.524-2.465-5.946-8.83-9.088-18.41-9.088zM4.707 31.52c-.41 0-.812-.167-1.102-.482-4.852-5.253-4.523-13.568.679-19.143C5.003 7.539 9.163.129 20.619.129c13.758 0 19.11 5.948 21.18 10.938 2.637 6.362.95 14.096-2.28 17.329a1.498 1.498 0 0 1-2.56-.997c-.072-1.755-.946-2.855-2.053-4.248-.773-.972-1.625-2.044-2.234-3.435-.365.136-.745.294-1.153.463-2.112.878-5.004 2.08-10.17 2.08-5.861 0-9.894-1.006-11.511-1.496-2.124 1.697-4.012 5.255-3.638 9.113a1.501 1.501 0 0 1-1.493 1.644z" mask="url(#d)"/>
        </g>
    </g>
</svg>
