<svg xmlns="http://www.w3.org/2000/svg" xmlns:xlink="http://www.w3.org/1999/xlink" width="100" height="100" viewBox="0 0 100 100">
    <defs>
        <path id="a" d="M.86.358h36.98V56H.86z"/>
        <path id="c" d="M0 .467h44.699v14.872H0z"/>
        <path id="e" d="M.1.467h2.5v14.872H.1z"/>
        <path id="g" d="M.885.467h2.5v14.872h-2.5z"/>
        <path id="i" d="M.315.467h2.5v14.872h-2.5z"/>
        <path id="k" d="M.188.318h28.503v28.498H.188z"/>
    </defs>
    <g fill="none" fill-rule="evenodd">
        <path fill="#E1FFFD" d="M61.59 78.03a3.254 3.254 0 0 1-3.253 3.253H30.362a3.253 3.253 0 0 1-3.252-3.253V34.152c0-1.796 1.456-1.456 3.252-1.456h27.975c1.796 0 3.253-.34 3.253 1.456V78.03z"/>
        <path fill="#FFF" d="M53.82 45.85l-26.748-.018V71.68l26.747.018z"/>
        <path fill="#2B8E8E" d="M53.82 72.798H27.071a1.25 1.25 0 0 1 0-2.5H52.57V47.425H27.072a1.25 1.25 0 0 1 0-2.5H53.82c.69 0 1.25.56 1.25 1.25v25.373c0 .69-.56 1.25-1.25 1.25"/>
        <g transform="translate(25 26.533)">
            <mask id="b" fill="#fff">
                <use xlink:href="#a"/>
            </mask>
            <path fill="#2B8E8E" d="M5.362 2.858A2.005 2.005 0 0 0 3.36 4.861v46.636c0 1.104.9 2.003 2.003 2.003h27.975a2.006 2.006 0 0 0 2.003-2.003V4.861a2.005 2.005 0 0 0-2.003-2.003H5.362zM33.337 56H5.362A4.508 4.508 0 0 1 .86 51.497V4.861A4.508 4.508 0 0 1 5.362.358h27.975a4.508 4.508 0 0 1 4.503 4.503v46.636A4.508 4.508 0 0 1 33.337 56z" mask="url(#b)"/>
        </g>
        <path fill="#FFF" d="M65.45 29.027a3.595 3.595 0 0 1-3.596 3.595H26.845a3.595 3.595 0 0 1-3.595-3.595v-5.183a3.594 3.594 0 0 1 3.595-3.594h35.01a3.594 3.594 0 0 1 3.594 3.594v5.183z"/>
        <g transform="translate(22 18.533)">
            <mask id="d" fill="#fff">
                <use xlink:href="#c"/>
            </mask>
            <path fill="#2B8E8E" d="M4.845 2.967A2.348 2.348 0 0 0 2.5 5.312v5.182a2.348 2.348 0 0 0 2.345 2.345h35.01a2.347 2.347 0 0 0 2.344-2.345V5.312a2.347 2.347 0 0 0-2.344-2.345H4.845zm35.01 12.372H4.845A4.85 4.85 0 0 1 0 10.494V5.312A4.85 4.85 0 0 1 4.845.467h35.01a4.849 4.849 0 0 1 4.844 4.845v5.182a4.849 4.849 0 0 1-4.844 4.845z" mask="url(#d)"/>
        </g>
        <g transform="translate(43 18.533)">
            <mask id="f" fill="#fff">
                <use xlink:href="#e"/>
            </mask>
            <path fill="#2B8E8E" d="M1.35 15.339c-.69 0-1.25-.56-1.25-1.25V1.717a1.25 1.25 0 1 1 2.5 0v12.372c0 .69-.56 1.25-1.25 1.25" mask="url(#f)"/>
        </g>
        <g transform="translate(53 18.533)">
            <mask id="h" fill="#fff">
                <use xlink:href="#g"/>
            </mask>
            <path fill="#2B8E8E" d="M2.135 15.339c-.69 0-1.25-.56-1.25-1.25V1.717a1.25 1.25 0 1 1 2.5 0v12.372c0 .69-.56 1.25-1.25 1.25" mask="url(#h)"/>
        </g>
        <g transform="translate(32 18.533)">
            <mask id="j" fill="#fff">
                <use xlink:href="#i"/>
            </mask>
            <path fill="#2B8E8E" d="M1.565 15.339c-.69 0-1.25-.56-1.25-1.25V1.717a1.25 1.25 0 1 1 2.5 0v12.372c0 .69-.56 1.25-1.25 1.25" mask="url(#j)"/>
        </g>
        <path fill="#FFF" d="M74.835 59.531c2.264-2.264 2.124-6.074-.313-8.512-2.437-2.436-6.248-2.577-8.512-.313a4.924 4.924 0 0 0-.199.211c-.019.015-.039.028-.057.046l-13.449 13.45c-.018.016-.031.037-.046.055a5.647 5.647 0 0 0-.21.2c-2.265 2.263-2.124 6.075.313 8.511 2.437 2.437 6.247 2.578 8.511.314.069-.068.136-.139.199-.21.02-.016.04-.028.058-.046l13.449-13.45c.018-.018.03-.038.046-.057.071-.064.142-.13.21-.199"/>
        <path fill="#FFEDBB" d="M59.03 57.688l-6.726 6.724c-.017.017-.03.038-.046.056a6.546 6.546 0 0 0-.209.2c-2.265 2.263-2.124 6.075.313 8.511 2.437 2.437 6.247 2.577 8.511.314.07-.069.135-.139.2-.21.02-.016.04-.029.057-.046l6.724-6.725"/>
        <g transform="translate(49 47.533)">
            <mask id="l" fill="#fff">
                <use xlink:href="#k"/>
            </mask>
            <path fill="#F9A01F" d="M4.23 17.723c-.043.05-.09.102-.133.139a4.052 4.052 0 0 0-.164.157c-.847.846-1.288 2.005-1.242 3.26.048 1.292.6 2.529 1.555 3.484.955.954 2.191 1.507 3.482 1.554a4.25 4.25 0 0 0 3.411-1.398c.046-.053.097-.102.152-.145L24.654 11.41c.042-.05.091-.102.133-.14a4.84 4.84 0 0 0 .164-.156c.847-.846 1.287-2.005 1.241-3.26-.048-1.291-.599-2.53-1.554-3.484-1.946-1.945-4.97-2.087-6.745-.313-.048.05-.103.107-.156.165a1.048 1.048 0 0 1-.122.118L4.23 17.723zm3.678 11.093c-1.933 0-3.91-.766-5.43-2.286C1.076 25.128.264 23.296.193 21.372c-.072-1.96.628-3.778 1.972-5.121a4.75 4.75 0 0 1 .192-.184.983.983 0 0 1 .064-.072l13.45-13.45c.02-.02.048-.045.078-.071.056-.06.112-.12.171-.18 2.753-2.753 7.364-2.611 10.285.309 2.921 2.92 3.062 7.532.314 10.279a4.774 4.774 0 0 1-.193.184c-.024.03-.05.059-.063.072l-13.449 13.45a1.76 1.76 0 0 1-.08.073c-.059.064-.12.127-.183.189-1.316 1.315-3.06 1.966-4.843 1.966z" mask="url(#l)"/>
        </g>
        <path fill="#F9A01F" d="M67.855 67.763c-.32 0-.64-.122-.885-.366l-8.825-8.825a1.25 1.25 0 0 1 1.768-1.768l8.826 8.825a1.25 1.25 0 0 1-.885 2.134"/>
        <path fill="#2B8E8E" d="M38.566 55.997H27.072a1.25 1.25 0 1 1 0-2.5h11.494a1.25 1.25 0 0 1 0 2.5M38.566 64.226H27.072a1.25 1.25 0 1 1 0-2.5h11.494a1.25 1.25 0 0 1 0 2.5"/>
    </g>
</svg>
