<svg xmlns="http://www.w3.org/2000/svg" xmlns:xlink="http://www.w3.org/1999/xlink" width="100" height="100" viewBox="0 0 100 100">
    <defs>
        <path id="a" d="M0 .413h78.133V10H0z"/>
    </defs>
    <g fill="none" fill-rule="evenodd">
        <path fill="#FFEDBB" d="M57.787 36.67h-3.939v-3.94a2.364 2.364 0 0 0-2.364-2.363h-2.836a2.364 2.364 0 0 0-2.363 2.364v3.939h-3.939a2.363 2.363 0 0 0-2.364 2.363v2.836a2.363 2.363 0 0 0 2.364 2.363h3.94v3.94a2.362 2.362 0 0 0 2.362 2.363h2.836a2.363 2.363 0 0 0 2.364-2.363v-3.94h3.94a2.362 2.362 0 0 0 2.362-2.363v-2.836a2.362 2.362 0 0 0-2.363-2.363"/>
        <path fill="#E1FFFD" d="M87.883 80.18a2.362 2.362 0 0 1-2.363 2.364H14.613a2.363 2.363 0 0 1-2.363-2.363v-2.36a2.365 2.365 0 0 1 2.363-2.364H85.52a2.364 2.364 0 0 1 2.363 2.364v2.36zM76.065 21.974a2.363 2.363 0 0 1-2.364 2.363h-47.27a2.362 2.362 0 0 1-2.363-2.363v-2.36a2.363 2.363 0 0 1 2.363-2.364h47.27a2.364 2.364 0 0 1 2.364 2.364v2.36z"/>
        <path fill="#2B8E8E" d="M16.98 76.707c-.69 0-1.25-.56-1.25-1.25V33.78a3.617 3.617 0 0 1 3.613-3.613H31.16a1.25 1.25 0 0 1 0 2.5H19.342c-.613 0-1.112.499-1.112 1.113v41.677c0 .69-.56 1.25-1.25 1.25M83.154 76.707c-.69 0-1.25-.56-1.25-1.25V33.78c0-.614-.499-1.113-1.113-1.113H68.975a1.25 1.25 0 0 1 0-2.5h11.816a3.617 3.617 0 0 1 3.613 3.613v41.677c0 .69-.56 1.25-1.25 1.25M41.026 76.707c-.69 0-1.25-.56-1.25-1.25V57.691a1.25 1.25 0 0 1 2.5 0v17.766c0 .69-.56 1.25-1.25 1.25M59.107 76.707c-.69 0-1.25-.56-1.25-1.25V57.691a1.25 1.25 0 0 1 2.5 0v17.766c0 .69-.56 1.25-1.25 1.25"/>
        <path fill="#F9A01F" d="M42.346 37.92c-.614 0-1.113.499-1.113 1.113v2.836c0 .614.499 1.113 1.113 1.113h3.939c.69 0 1.25.56 1.25 1.25v3.94c0 .614.499 1.113 1.114 1.113h2.836c.614 0 1.113-.5 1.113-1.113v-3.94c0-.69.56-1.25 1.25-1.25h3.939c.615 0 1.114-.5 1.114-1.113v-2.836c0-.614-.5-1.113-1.114-1.113h-3.94c-.69 0-1.25-.56-1.25-1.25v-3.94c0-.614-.498-1.113-1.112-1.113h-2.836c-.615 0-1.114.499-1.114 1.114v3.939c0 .69-.56 1.25-1.25 1.25h-3.94zm9.139 13.865h-2.836a3.618 3.618 0 0 1-3.614-3.613v-2.69h-2.69a3.617 3.617 0 0 1-3.612-3.613v-2.836a3.617 3.617 0 0 1 3.613-3.613h2.689v-2.69a3.618 3.618 0 0 1 3.614-3.613h2.836a3.618 3.618 0 0 1 3.613 3.614v2.689h2.689a3.618 3.618 0 0 1 3.614 3.613v2.836a3.618 3.618 0 0 1-3.614 3.613h-2.69v2.69a3.617 3.617 0 0 1-3.612 3.613z"/>
        <path fill="#2B8E8E" d="M68.975 76.707c-.69 0-1.25-.56-1.25-1.25v-51.12a1.25 1.25 0 1 1 2.5 0v51.12c0 .69-.56 1.25-1.25 1.25M31.16 76.707c-.69 0-1.25-.56-1.25-1.25v-51.12a1.25 1.25 0 1 1 2.5 0v51.12c0 .69-.56 1.25-1.25 1.25"/>
        <g transform="translate(11 73.794)">
            <mask id="b" fill="#fff">
                <use xlink:href="#a"/>
            </mask>
            <path fill="#2B8E8E" d="M3.613 2.913c-.614 0-1.113.5-1.113 1.113v2.361C2.5 7.001 3 7.5 3.613 7.5H74.52c.615 0 1.114-.499 1.114-1.113v-2.36c0-.615-.499-1.114-1.114-1.114H3.613zM74.52 10H3.613A3.617 3.617 0 0 1 0 6.387v-2.36A3.617 3.617 0 0 1 3.613.412H74.52a3.618 3.618 0 0 1 3.614 3.613v2.361A3.618 3.618 0 0 1 74.52 10z" mask="url(#b)"/>
        </g>
        <path fill="#2B8E8E" d="M26.432 18.5c-.614 0-1.113.499-1.113 1.113v2.361c0 .614.499 1.113 1.113 1.113h47.27c.614 0 1.114-.499 1.114-1.113v-2.361c0-.614-.5-1.113-1.114-1.113h-47.27zm47.27 7.087h-47.27a3.617 3.617 0 0 1-3.613-3.613v-2.361A3.617 3.617 0 0 1 26.432 16h47.27a3.618 3.618 0 0 1 3.614 3.613v2.361a3.618 3.618 0 0 1-3.614 3.613zM61.59 58.941H38.543a1.25 1.25 0 0 1 0-2.5H61.59a1.25 1.25 0 0 1 0 2.5M76.34 41.888h-7.365a1.25 1.25 0 1 1 0-2.5h7.365a1.25 1.25 0 0 1 0 2.5M76.34 54.555h-7.365a1.25 1.25 0 1 1 0-2.5h7.365a1.25 1.25 0 0 1 0 2.5M76.34 67.22h-7.365a1.25 1.25 0 1 1 0-2.5h7.365a1.25 1.25 0 0 1 0 2.5M31.16 41.888h-7.367a1.25 1.25 0 1 1 0-2.5h7.366a1.25 1.25 0 0 1 0 2.5M31.16 54.555h-7.367a1.25 1.25 0 1 1 0-2.5h7.366a1.25 1.25 0 0 1 0 2.5M31.16 67.22h-7.367a1.25 1.25 0 1 1 0-2.5h7.366a1.25 1.25 0 0 1 0 2.5"/>
        <path fill="#2B8E8E" d="M50.067 76.707c-.69 0-1.25-.56-1.25-1.25V57.691a1.25 1.25 0 0 1 2.5 0v17.766c0 .69-.56 1.25-1.25 1.25"/>
    </g>
</svg>
