<svg xmlns="http://www.w3.org/2000/svg" width="32" height="32" viewBox="0 0 32 32">
    <g fill="none" fill-rule="nonzero">
        <circle cx="16" cy="16" r="16" fill="#DC4E41"/>
        <path fill="#FFF" d="M16.223 15.102c-1.25 0-7.69-3.652-7.69-3.652v-.57c0-.707.574-1.28 1.282-1.28H22.63a1.28 1.28 0 0 1 1.282 1.28l-.01.64s-6.37 3.582-7.68 3.582zm0 1.76c1.37 0 7.68-3.422 7.68-3.422l.01 7.68a1.28 1.28 0 0 1-1.282 1.28H9.815a1.281 1.281 0 0 1-1.282-1.28l.01-7.68s6.43 3.422 7.68 3.422z"/>
    </g>
</svg>
