<svg xmlns="http://www.w3.org/2000/svg" width="200" height="141" viewBox="0 0 200 141">
    <g fill="none" fill-rule="nonzero">
        <path fill="#FFF" d="M3.724 135.84a2.235 2.235 0 0 0-2.234 2.294 2.305 2.305 0 0 0 2.339 2.175h24.923a2.235 2.235 0 1 0 0-4.47H3.724zM129.743 41.203a6.134 6.134 0 0 0-5.296-3.024h-4.037a2.019 2.019 0 0 0-2.019 2.015v22.882a2.074 2.074 0 0 0 1.821 2.093 2.019 2.019 0 0 0 2.235-2.007v-20.95h2.019c.942.016 1.773.62 2.078 1.512a2.019 2.019 0 0 0 1.955 1.516s7.237 0 10.559.037a2.007 2.007 0 0 0 1.974-1.571 2.011 2.011 0 0 0-1.94-2.447c-3.49-.037-9.349-.056-9.349-.056zM93.907 87.419H82.439a.704.704 0 0 1-.703-.704v-11.21a.745.745 0 0 1 .744-.764h11.408a2.29 2.29 0 0 0 2.302-1.955 2.235 2.235 0 0 0-2.216-2.514h-11.56a.678.678 0 0 1-.678-.682v-9.21a1.616 1.616 0 0 0 0-.19 2.023 2.023 0 0 0-2.034-1.829h-4.019a6.12 6.12 0 0 0-5.292 3.028h-9.84a19.147 19.147 0 0 0-18.465 14.123s-.239.868-.436 1.888c-.097.54-.57.929-1.117.92H30.64a22.052 22.052 0 0 0-10.742 3.166c-4.655 2.872-7.113 7.129-7.113 12.29 0 10.429 7.259 16.667 19.415 16.667h27.427c9.31 0 15.836 4.749 15.836 11.546 0 5.937-1.784 13.832-17.226 13.832H41.255a2.294 2.294 0 0 0-2.324 2.168 2.235 2.235 0 0 0 2.235 2.302h17.076c9.896 0 21.695-3.174 21.695-18.302 0-9.281-8.54-16.015-20.306-16.015h-27.43c-5.586 0-14.946-1.583-14.946-12.197 0-9.043 10.73-11.002 13.386-11.002h9.862c.566 0 1.048.41 1.14.968.104.628.252 1.248.443 1.855a19.18 19.18 0 0 0 2.637 5.732 1.981 1.981 0 0 0 2.916.417l.06-.049a1.955 1.955 0 0 0 .33-2.607 15.188 15.188 0 0 1-2.591-9.355c.41-7.881 7.478-14.313 15.37-14.313h10.838c.92 0 1.725-.622 1.955-1.512a2.235 2.235 0 0 1 2.082-1.516h1.24c.43.002.775.35.775.778v34.805a.745.745 0 0 1-.745.745h-1.28a2.235 2.235 0 0 1-2.083-1.513 2.019 2.019 0 0 0-1.955-1.512H60.551a15.158 15.158 0 0 1-7.449-1.936 2.09 2.09 0 0 0-2.476.26 2.004 2.004 0 0 0 .372 3.162 19.054 19.054 0 0 0 9.55 2.548h9.843a6.12 6.12 0 0 0 5.296 3.028h4.015a2.019 2.019 0 0 0 2.019-2.019v-7.959a.89.89 0 0 1 .894-.894h11.363a2.235 2.235 0 0 0 2.216-2.517 2.29 2.29 0 0 0-2.287-1.952z"/>
        <path fill="#FFF" d="M145.5 2.752c-8.655 0-13.627 1.025-17.05 4.566-3.519 3.647-4.644 8.518-4.644 12.958a15.121 15.121 0 0 0 7.345 13.098c4 2.384 9.542 3.699 15.609 3.699h22.167c5.587 0 14.95 1.586 14.95 12.197 0 9.047-10.73 11.002-13.385 11.002h-10.935a.927.927 0 0 1-.928-.816 16.26 16.26 0 0 0-.577-2.823 19.225 19.225 0 0 0-7.728-10.8 2.115 2.115 0 0 0-2.834.372 2.048 2.048 0 0 0 .462 2.98 15.073 15.073 0 0 1-8.377 27.642h-11.083a2.015 2.015 0 0 0-1.956 1.512 2.235 2.235 0 0 1-2.078 1.512h-2v-6.547a2.09 2.09 0 0 0-1.836-2.116 2.022 2.022 0 0 0-2.201 2.011v8.846c.1 1.039.974 1.831 2.018 1.828h4.038a6.127 6.127 0 0 0 5.288-3.016.019.019 0 0 1 .019 0h9.821a19.155 19.155 0 0 0 18.477-14.123s.171-.64.346-1.468a.66.66 0 0 1 .645-.521h11.448a22.011 22.011 0 0 0 10.742-3.166c4.651-2.871 7.113-7.125 7.113-12.29 0-10.429-7.259-16.667-19.419-16.667H146.76c-8.53 0-18.484-3.676-18.484-12.197 0-7.84 3.352-13.185 17.225-13.185h28.264a2.235 2.235 0 0 0 0-4.47l-28.264-.018zM197.3 2.752h-12.894a2.235 2.235 0 1 0 0 4.47h12.987a2.235 2.235 0 0 0 2.235-2.306 2.298 2.298 0 0 0-2.328-2.164z"/>
        <path fill="#FFCF01" d="M131.061 95.18h-1.966v-1.966a1.49 1.49 0 1 0-2.98 0v1.967h-1.966a1.49 1.49 0 1 0 0 2.98h1.966v1.966a1.49 1.49 0 0 0 2.98 0V98.16h1.966a1.49 1.49 0 0 0 0-2.98z"/>
        <path fill="#4BC2C6" d="M2.607 133.233a2.235 2.235 0 0 0-2.235 2.294 2.305 2.305 0 0 0 2.34 2.175h24.923a2.235 2.235 0 1 0 0-4.47H2.607zM128.626 38.596a6.134 6.134 0 0 0-5.296-3.024h-4.038a2.019 2.019 0 0 0-2.018 2.015v22.882a2.074 2.074 0 0 0 1.821 2.093 2.019 2.019 0 0 0 2.235-2.007v-20.95h2.018c.943.016 1.774.62 2.078 1.512a2.019 2.019 0 0 0 1.956 1.516s7.236 0 10.558.037a2.007 2.007 0 0 0 1.974-1.571 2.011 2.011 0 0 0-1.94-2.447c-3.49-.037-9.348-.056-9.348-.056zM92.79 84.812H81.322a.704.704 0 0 1-.704-.704v-11.21a.745.745 0 0 1 .745-.764h11.408a2.29 2.29 0 0 0 2.302-1.955 2.235 2.235 0 0 0-2.216-2.514h-11.56a.678.678 0 0 1-.679-.682v-9.21a1.616 1.616 0 0 0 0-.19 2.023 2.023 0 0 0-2.033-1.829h-4.019a6.12 6.12 0 0 0-5.292 3.028h-9.84a19.147 19.147 0 0 0-18.466 14.123s-.238.868-.435 1.888c-.097.54-.57.929-1.118.92h-9.892a22.052 22.052 0 0 0-10.74 3.166c-4.656 2.871-7.114 7.128-7.114 12.29 0 10.429 7.258 16.667 19.415 16.667H58.51c9.311 0 15.836 4.749 15.836 11.546 0 5.936-1.784 13.832-17.225 13.832H40.138a2.294 2.294 0 0 0-2.324 2.168 2.235 2.235 0 0 0 2.234 2.301h17.077c9.895 0 21.694-3.173 21.694-18.301 0-9.281-8.54-16.015-20.305-16.015h-27.43c-5.587 0-14.946-1.583-14.946-12.198 0-9.042 10.73-11.001 13.385-11.001h9.862c.566 0 1.049.41 1.14.968.104.628.252 1.248.443 1.855a19.18 19.18 0 0 0 2.637 5.732 1.981 1.981 0 0 0 2.916.417l.06-.049a1.955 1.955 0 0 0 .331-2.607 15.188 15.188 0 0 1-2.592-9.356c.41-7.88 7.479-14.312 15.37-14.312H70.53c.92 0 1.724-.622 1.955-1.512a2.235 2.235 0 0 1 2.082-1.516h1.24c.429.002.775.35.775.778v34.805a.745.745 0 0 1-.745.744h-1.281a2.235 2.235 0 0 1-2.082-1.512 2.019 2.019 0 0 0-1.955-1.512H59.434a15.158 15.158 0 0 1-7.449-1.936 2.09 2.09 0 0 0-2.477.26 2.004 2.004 0 0 0 .373 3.162 19.054 19.054 0 0 0 9.55 2.548h9.843a6.12 6.12 0 0 0 5.296 3.028h4.015a2.019 2.019 0 0 0 2.018-2.019v-7.959a.89.89 0 0 1 .894-.894H92.86a2.235 2.235 0 0 0 2.216-2.517 2.29 2.29 0 0 0-2.286-1.952z"/>
        <path fill="#4BC2C6" d="M144.384.145c-8.656 0-13.628 1.024-17.05 4.566-3.52 3.647-4.645 8.518-4.645 12.954a15.121 15.121 0 0 0 7.345 13.102c4 2.384 9.541 3.699 15.608 3.699h22.168c5.587 0 14.95 1.586 14.95 12.197 0 9.046-10.73 11.002-13.386 11.002H158.44a.927.927 0 0 1-.927-.816 16.26 16.26 0 0 0-.577-2.823 19.225 19.225 0 0 0-7.728-10.8 2.115 2.115 0 0 0-2.835.372 2.048 2.048 0 0 0 .462 2.98 15.073 15.073 0 0 1-8.376 27.642h-11.084a2.015 2.015 0 0 0-1.955 1.512 2.235 2.235 0 0 1-2.078 1.512h-2v-6.548a2.09 2.09 0 0 0-1.836-2.115 2.022 2.022 0 0 0-2.201 2.011v8.846c.1 1.039.974 1.831 2.018 1.828h4.037a6.127 6.127 0 0 0 5.289-3.016.019.019 0 0 1 .019 0h9.82a19.155 19.155 0 0 0 18.478-14.123s.17-.641.346-1.468a.66.66 0 0 1 .644-.521h11.45a22.011 22.011 0 0 0 10.74-3.166c4.652-2.871 7.114-7.125 7.114-12.29 0-10.429-7.259-16.667-19.42-16.667h-22.197c-8.528 0-18.484-3.676-18.484-12.197 0-7.84 3.352-13.185 17.226-13.185h28.264a2.235 2.235 0 0 0 0-4.47L144.384.146zM196.182.145H183.29a2.235 2.235 0 1 0 0 4.47h12.987a2.235 2.235 0 0 0 2.234-2.306 2.298 2.298 0 0 0-2.328-2.164z"/>
        <path fill="#FFCF01" d="M89.21 56.078c-.301 0-.599-.068-.871-.197a2.097 2.097 0 0 1-1.017-2.64l2.827-7.636a2.13 2.13 0 0 1 1.285-1.285 2.045 2.045 0 0 1 2.235.645.134.134 0 0 0 .223-.038l2.201-5.031c.397-1 1.485-1.54 2.522-1.252a2.045 2.045 0 0 1 1.292 2.745L96.16 50.4a2.045 2.045 0 0 1-3.285.715.287.287 0 0 0-.454.119l-1.304 3.52a2.045 2.045 0 0 1-1.907 1.325zM80.998 53.784a2.048 2.048 0 0 1-2.041-2.387l1.434-8.853a2.056 2.056 0 0 1 4.06.659l-1.434 8.853a2.048 2.048 0 0 1-2.019 1.728z"/>
        <path fill="#4BC2C6" d="M88.466 53.471c-.302 0-.6-.068-.872-.197a2.097 2.097 0 0 1-1.017-2.64l2.827-7.636a2.13 2.13 0 0 1 1.285-1.285 2.045 2.045 0 0 1 2.235.645.134.134 0 0 0 .223-.038l2.201-5.031c.397-1.001 1.485-1.54 2.522-1.252a2.045 2.045 0 0 1 1.292 2.745l-3.747 9.01a2.045 2.045 0 0 1-3.285.715.287.287 0 0 0-.454.119l-1.304 3.52a2.045 2.045 0 0 1-1.906 1.325zM80.253 51.177a2.048 2.048 0 0 1-2.041-2.387l1.434-8.853a2.056 2.056 0 1 1 4.06.659l-1.434 8.853a2.048 2.048 0 0 1-2.019 1.728z"/>
    </g>
</svg>
