<svg xmlns="http://www.w3.org/2000/svg" width="32" height="32" viewBox="0 0 32 32">
    <g fill="none" fill-rule="evenodd">
        <path fill="#1DA1F2" fill-rule="nonzero" d="M16 0c8.835 0 16 7.165 16 16s-7.165 16-16 16S0 24.835 0 16 7.165 0 16 0z"/>
        <path fill="#FFF" fill-rule="nonzero" d="M12.288 24.128c7.546 0 11.677-6.253 11.677-11.677 0-.176 0-.355-.013-.531A8.341 8.341 0 0 0 26 9.795a8.152 8.152 0 0 1-2.355.647 4.113 4.113 0 0 0 1.805-2.27 8.21 8.21 0 0 1-2.605.996 4.11 4.11 0 0 0-5.805-.18 4.11 4.11 0 0 0-1.187 3.92 11.656 11.656 0 0 1-8.458-4.287 4.107 4.107 0 0 0 1.27 5.478 4.082 4.082 0 0 1-1.862-.512v.051a4.104 4.104 0 0 0 3.293 4.023 4.12 4.12 0 0 1-1.853.07 4.113 4.113 0 0 0 3.834 2.851 8.221 8.221 0 0 1-6.07 1.7 11.56 11.56 0 0 0 6.281 1.843"/>
        <path d="M16 0c8.835 0 16 7.165 16 16s-7.165 16-16 16S0 24.835 0 16 7.165 0 16 0z"/>
    </g>
</svg>
