<svg xmlns="http://www.w3.org/2000/svg" width="32" height="32" viewBox="0 0 32 32">
    <g fill="none" fill-rule="evenodd">
        <path fill="#25D366" fill-rule="nonzero" d="M16 32C7.165 32 0 24.835 0 16S7.165 0 16 0s16 7.165 16 16-7.165 16-16 16z"/>
        <path fill="#FFF" d="M23.485 8.55a10.46 10.46 0 0 0-7.44-3.084C10.25 5.466 5.53 10.182 5.53 15.98c0 1.853.483 3.664 1.404 5.257l-1.49 5.45 5.574-1.462a10.488 10.488 0 0 0 5.024 1.28h.003c5.795 0 10.512-4.717 10.515-10.516a10.435 10.435 0 0 0-3.075-7.44zm-7.437 16.18h-.003a8.713 8.713 0 0 1-4.448-1.22l-.32-.188-3.309.867.883-3.226-.208-.33a8.737 8.737 0 0 1-1.337-4.652c.003-4.82 3.923-8.74 8.745-8.74a8.68 8.68 0 0 1 6.18 2.564 8.674 8.674 0 0 1 2.556 6.182c0 4.823-3.923 8.743-8.739 8.743zm4.794-6.548c-.263-.13-1.556-.768-1.796-.854-.24-.086-.416-.131-.592.131-.176.263-.678.855-.832 1.03-.153.177-.307.199-.57.068-.262-.131-1.11-.41-2.111-1.306-.781-.697-1.309-1.558-1.463-1.82-.153-.263-.016-.407.116-.538.118-.119.262-.307.393-.461.131-.154.176-.262.263-.438.086-.176.044-.33-.023-.461s-.592-1.424-.81-1.952c-.214-.512-.428-.442-.591-.451-.154-.007-.33-.01-.503-.01a.967.967 0 0 0-.7.33c-.24.262-.919.899-.919 2.192 0 1.292.94 2.544 1.072 2.716.131.176 1.853 2.83 4.49 3.968.627.272 1.116.432 1.497.554.63.202 1.203.173 1.655.106.505-.077 1.555-.637 1.772-1.248.218-.615.218-1.14.154-1.248-.064-.11-.24-.173-.502-.308z"/>
    </g>
</svg>
