<?xml version="1.0" standalone="no"?>
<!DOCTYPE svg PUBLIC "-//W3C//DTD SVG 1.1//EN" "http://www.w3.org/Graphics/SVG/1.1/DTD/svg11.dtd">
<svg xmlns="http://www.w3.org/2000/svg">
<metadata>Copyright (C) 2019 by original authors @ fontello.com</metadata>
<defs>
<font id="font-sehatq" horiz-adv-x="1000" >
<font-face font-family="font-sehatq" font-weight="400" font-stretch="normal" units-per-em="1000" ascent="850" descent="-150" />
<missing-glyph horiz-adv-x="1000" />
<glyph glyph-name="article" unicode="&#xe800;" d="M32 172c17 0 32 14 32 32l0 0c0 1 0 1 0 2l0 76c0 0 0 1 0 1-2 17-16 30-33 30-17-1-30-14-31-31l0-76 0-1c0-9 3-17 9-23 6-7 14-10 23-10m600 94l-471 0c-17-1-30-15-30-32 0-17 13-31 30-32l471 0c17 1 30 15 30 32 0 17-13 31-30 32l0 0z m0-138l-471 0c-17-1-31-15-31-32 0-18 14-32 31-32l471 0c17 0 30 15 30 32 0 17-13 31-30 31l0 1z m9 294l-116 0c-12 0-23-6-29-17-6-10-5-23 2-33 7-10 18-15 30-14l109 0c12-1 24 4 31 14 7 10 8 23 2 33-6 11-17 17-29 17l0 0z m0 128l-116 0c-12 0-23-7-29-17-6-11-5-24 2-33 7-10 18-16 30-14l109 0c12-2 24 3 31 13 7 10 8 23 2 34-6 11-17 17-29 17l0 0z m0 128l-116 0c-12 0-23-7-29-17-6-11-5-24 2-34 7-10 18-15 30-13l109 0c12-2 24 3 31 13 7 10 8 23 2 34-6 10-17 17-29 17l0 0z m-266-225c0-5-4-9-9-9l-165 0c-4 0-8 4-8 9l0 164c0 5 4 9 8 9l165 0c2 0 4-1 6-3 2-1 3-4 3-6l0-164 0 0z m-174-69l165 0c38 0 68 31 69 69l0 164c-1 38-31 69-69 69l-165 0c-37 0-68-31-68-69l0-164c0-38 31-69 68-69l0 0z m-169-36c17 0 31 13 32 30 0 1 0 1 0 2l0 365 0 1 0 0c0 15 12 27 27 27 0 0 1 0 2 0l428 0c13-2 25 2 32 12 8 10 9 23 3 34-5 11-17 18-29 18l-464 0 0 0c-35-3-62-31-63-66 0 0 0-1 0-2l0-389c0-18 14-32 32-32m921 292c-3 27-26 48-53 48l-52 0c-17-1-30-15-30-32 0-17 13-31 30-32l24 0c10-3 17-12 17-22l0-102c1-17 15-31 32-31 17 0 31 14 32 31l0 140 0 0m-32-210c-18 0-32-14-32-32l0-423c-1-29-25-51-53-51-29 0-52 22-54 51l0 634 0 168c0 1 0 2 0 2-1 31-26 57-57 58-1 0-2 0-2 0l-74 0c-18 0-32-15-32-32 0-10 5-19 12-25 7-6 17-8 26-7l35 0c1 0 1 0 2 0 15 0 26-12 27-27l0-771c0-19 4-37 13-53l-594 0c-41 0-74 33-74 74l0 100c0 1 0 2-1 2-3 16-16 27-31 27-16-1-29-12-31-27-1-1-1-2-1-2l0-100c0-76 62-138 138-138l698 0c64 0 117 52 117 117l0 423c0 18-15 32-32 32" horiz-adv-x="962" />

<glyph glyph-name="booking" unicode="&#xe801;" d="M403 717c-15 0-29 14-24 29 0 14 9 23 24 23l261 0c14 0 28-9 28-23 0-15-9-29-24-29 0 0 0 0-4 0l-261 0 0 0z m346-66c-14 0-28 14-28 28 0 0 0 0 0 0l0 128c0 15 9 29 23 29 15 0 29-10 29-24 0 0 0 0 0-5l0-128c5-14-10-28-24-28l0 0z m-427 0c-14 0-28 14-28 28 0 0 0 0 0 0l0 128c0 15 9 29 23 29 15 0 29-10 29-24 0 0 0-5 0-5l0-128c4-14-10-28-24-28l0 0z m503 66l0 0c-14 0-29 14-29 29 0 14 15 23 24 23l105 0c33-4 61-33 61-66l0-304c0-14-14-28-28-28-14 0-29 14-29 28l0 280c0 19-9 33-28 38l-76 0 0 0z m152-569l0 0c14 0 28-14 24-29 0-14-10-23-24-23l-52 0c-10 0-19-5-19-15l0-57c0-14-10-28-24-28-14 0-29 10-29 24 0 0 0 0 0 4l0 57c0 10-9 15-14 15l-57 0c-14 0-28 14-23 28 0 14 14 24 23 24l52 0c10 0 19 9 19 19l0 52c0 14 10 28 24 28 14 0 29-9 29-23 0 0 0 0 0-5l0-57c0-9 9-19 19-19l52 5 0 0z m-380-81l0 0c14 0 29-9 29-28 0-19-10-29-29-29 0 0 0 0 0 0l-460 0c-33 5-57 29-57 62l0 631c0 38 29 66 66 66l91 0c14 0 28-9 28-23 0-15-9-29-24-29 0 0-4 0-4 0l-76 0c-10-5-24-14-24-28l0-584c0-19 14-38 38-38l422 0 0 0z m-152 361c-23 0-42 19-42 42 0 24 19 48 42 48 0 0 0 0 0 0 24 0 43-19 43-43 5-28-19-47-43-47z m166 0c-23 0-42 19-42 42 0 24 19 43 42 43 0 0 0 0 0 0 24 0 43-19 43-43 0-23-19-42-43-42z m209 47c0-23-19-42-42-42-24 0-43 19-43 42 0 24 19 43 43 43 23 0 42-19 42-43l0 0z m-493-185c0-24-19-43-43-43-24 0-43 19-43 43 0 0 0 0 0 0 0 24 19 43 43 43 24 0 43-19 43-43z m118-47c-23 0-42 19-42 42 0 24 19 43 42 43 24 0 43-19 43-43 0-4 0-9-5-19-4-14-19-23-38-23l0 0z m166 0c-23 0-42 19-42 42 0 24 19 43 42 43 24 0 43-19 43-43 0-4 0-9-5-19-4-14-19-23-38-23l0 0z m269 127c133 0 240-107 240-240 0-133-107-240-240-240-132 0-240 107-240 240 0 133 108 240 240 240z m0-60c-99 0-180-81-180-180 0-99 81-180 180-180 99 0 180 81 180 180 0 99-81 180-180 180z" horiz-adv-x="1200" />

<glyph glyph-name="cart" unicode="&#xe802;" d="M910 670c0 0-3 0-3 0h-700l-10 30c-7 23-30 43-57 43h-83c-14 0-20-10-20-23 0-10 10-20 20-20h83c7 0 13-3 13-10l127-473c10-44 50-70 93-70h460c14 0 24 10 24 23 0 13-10 23-24 23h-460c-23 0-43 17-50 40l-6 27h486c30 0 54 20 57 47v0l67 340c3 6-4 20-17 23z m-93-357c0-6-7-13-14-13h-500l-86 323h663l-63-310z m-464-196c-53 0-96-44-96-97 0-53 43-97 96-97 54 0 97 44 97 97 0 53-43 97-97 97z m0-150c-30 0-53 23-53 53 0 30 23 50 53 50 30 0 50-23 50-50 0-30-23-53-50-53z m407 150c-53 0-97-44-97-97 0-53 44-97 97-97 53 0 97 44 97 97-4 53-44 97-97 97z m0-150c-30 0-50 23-50 50 0 30 23 50 50 50 30 0 50-24 50-50 0-27-23-50-50-50z" horiz-adv-x="1000" />

<glyph glyph-name="chat-v2" unicode="&#xe803;" d="M700 391h-430c-11 0-22-11-22-22 0-12 11-23 22-23h430c11 0 22 11 22 23 0 11-11 22-22 22z m-33 322h-397c-129 0-237-107-237-237v-430c0-11 11-22 23-22 3 0 7 0 11 4l211 141h389c129 0 237 107 237 237v70c-4 130-108 237-237 237z m192-307c0-108-85-193-192-193h-397c-3 0-7 0-11-4l-181-122v389c0 107 85 193 192 193h397c107 0 192-86 192-193v-70z m-159 126l0 0-430 0c-11 3-22-8-22-19 0-11 11-22 22-22h430c11 0 22 11 22 22 0 11-11 19-22 19z" horiz-adv-x="963" />

<glyph glyph-name="disease" unicode="&#xe804;" d="M988 586c-3 7-9 12-17 15-7 2-14 2-21-1l0 0-180-85c-10-4-20-2-27 6-28 42-67 76-112 99-7 5-11 14-9 23l26 78c2 7 1 15-2 22-3 6-9 12-16 14-8 2-15 2-22-2-7-3-12-9-14-16l-25-77c-4-8-13-14-22-14-7 1-14 2-21 3-7 1-14-1-20-6l0 0c-6-5-9-12-10-19-1-7 1-15 6-20 4-6 11-10 18-11 18-2 35-6 52-12l6-2c29-10 56-26 80-47 22-21 41-46 54-73 0-2 0-3 1-4 12-26 20-53 23-81 3-31-1-64-12-96l-1-3-1 0c0-1-1-2-1-3-6-18-14-34-23-50-5-6-6-14-4-21 2-8 6-14 13-18l0 0c5-3 9-4 14-4 10 0 19 5 24 13 5 8 10 16 14 25 6 8 15 12 25 10l78-26c7-2 15-2 21 2 7 3 12 9 15 16 2 7 1 15-2 22-3 6-9 11-16 14l-79 26c-8 5-13 14-12 23 0 2 0 4 1 5 0 1 0 1 0 2l0 0 0 0c3 22 4 45 2 68-2 19-5 39-11 58-1 10 4 20 13 25l2 1 1 0 0 1 177 82c6 3 11 8 14 16l1 0c2 7 2 15-1 22m-512-160c-8-8-17-12-27-12-11 0-20 4-29 12-7 8-11 17-11 28 0 11 4 19 11 27 0 0 1 0 1 0 7 8 17 11 28 11 10 0 19-3 27-11l0 0c7-7 11-16 11-27 0-12-4-21-11-28m40 95c-18 18-42 28-67 28-27 0-50-9-68-28-18-17-29-42-28-67 0-27 9-50 27-67 19-20 42-30 69-30 26 0 50 10 67 29 18 18 27 41 27 68 0 26-9 48-27 67l0 0m63-190c7 0 14 3 19 9 6 5 9 12 9 20 0 7-3 14-8 19-5 6-13 9-20 9-29 0-54-11-76-32l0 0c-20-20-30-46-30-75 0-30 10-55 30-76l1 0c21-21 47-31 76-31 29 0 54 10 74 31 21 20 32 46 32 76 0 24-7 45-20 63-5 7-13 11-22 11-7 0-13-3-18-6-6-5-10-12-11-20 0-7 2-14 6-19l0-1c6-8 9-17 9-28 0-14-6-27-15-36-10-10-22-15-35-15-15 0-27 5-37 15 0 0 0 0 0 0-9 10-14 21-14 36 0 14 4 25 14 36 11 9 22 14 36 14m75-247c-2 9 1 18 7 24l4 2 11 8c6 4 11 10 12 17 2 8 0 15-4 22l0 0c-5 8-14 13-24 13-5 0-10-2-15-5l0 0-13-9c-10-7-22-13-33-19-17-8-35-14-53-18-16-4-33-6-50-6-13 0-26 1-39 4-13 2-25 6-37 9l-5 2-1 0c0 1 0 1-1 1-35 13-64 31-87 54-1 1-2 1-2 2l-2 1c-16 17-31 38-43 63 0 1-1 2-1 4-28 58-32 118-11 179l6 17c3 7 6 14 11 21 23 45 59 79 108 102 13 6 26 11 39 15 0 0 1 1 1 1l0 0c8 1 14 5 19 11 4 6 6 14 4 21-1 8-5 14-11 19-6 4-14 6-22 4l-8-2-2 0 0 0c-10-2-20 2-26 11l-84 181c-4 7-10 13-17 15-7 3-14 3-21-1-7-3-12-9-15-16-2-7-2-14 1-21l0 0 85-182c4-10 1-21-7-27-1-1-3-2-5-3l0-1 0 0 0 0c-38-26-68-60-89-100-1-1-1-1-1-2l0 0 0 0c-5-10-15-15-26-14l-78 26c-7 2-15 2-22-2-6-3-11-9-14-16-2-7-2-15 2-22 3-7 9-11 16-14l74-24 0 0c13-5 20-19 15-32l0 0 1 0c-6-41-4-82 8-122l0 0 0 0c3-10 0-22-9-28l-30-14c-7-4-13-9-15-17-5-14 2-30 16-36l1 0c7-2 14-2 21 1l0 0 31 15c9 2 18-1 25-8 1-2 2-4 3-5l0-1 0 0c10-14 22-28 34-40l2-2c20-19 43-35 68-48l0 0 0 0c10-5 15-16 13-27l-2-5 0-1-24-71c-2-7-1-15 2-21 3-7 9-12 16-14 7-3 15-2 22 1 7 3 12 9 14 16l26 79c4 7 12 12 21 12l1 0c17-3 34-5 51-5 27 0 54 4 79 12l0 0c1 0 1 0 1 1l2 0c10 2 21-2 26-11l85-182c4-11 15-17 26-17 4 0 8 1 12 3 6 3 11 8 14 15l0 1c3 7 2 15-1 21l-86 185 0 0z m-530 117c-3 1-7 2-10 2-4 0-8-1-12-3l-85-39c-7-4-13-9-15-17-3-7-3-14 1-21 4-10 14-17 26-17 4 0 8 1 11 3l86 40c7 3 12 9 15 16 5 15-3 31-17 36l0 0z m272 61l-1-1c-2-3-6-6-14-6-5 0-10 2-14 6-4 4-6 9-5 14 0 6 1 11 5 15 4 4 9 6 14 5 6 1 11-2 15-6 4-4 6-8 6-14 0-6-2-10-6-13m-15 90c-20 0-39-8-54-22-1-1-2-2-3-3-12-15-19-32-19-52 0-21 7-39 22-54l0 0c15-15 33-22 54-22 22 0 40 7 55 22 15 15 22 33 22 54 1 20-7 40-22 54-15 15-33 23-55 23" horiz-adv-x="1000" />

<glyph glyph-name="doctor" unicode="&#xe805;" d="M383 270c-2 0-4 0-7 1-38 3-61 34-64 37-7 11-4 25 6 32 10 7 24 5 32-5 0 0 13-17 31-18 11-1 24 5 38 19 9 8 24 8 32-1 9-9 9-23 1-32-22-22-45-33-69-33m-85 498c9 20 29 33 52 33l168 0c43 0 83-19 109-53 14-18 24-39 28-61l-305 0c-32 0-57 26-58 57 1 8 2 16 5 24m-190-360c4-2 8-5 13-6 1-7 6-13 12-17 7-3 15-3 21 0 7 3 12 9 14 17 0 0 0 1 0 2l0 0c1 3 0 6 0 8 0 4 0 7 0 10l0 105c0 12 8 13 9 14 38 2 112 17 174 89 5 5 11 8 17 8l315 0c6 0 13 2 17 7 5 5 7 11 7 17 0 50-20 98-55 133-35 35-83 55-133 55l-168 0c-37 0-70-18-89-48-3-3-5-7-6-11-5-10-8-21-11-32-5-39 12-77 43-100 3-5 7-9 11-12-1-1-1-2-2-2-25-24-56-41-89-50-11-3-21-4-32-5l0 0 0 0c-1 0-1 0-2 0-2 0-6 0-7 7l0 53c0 10 4 22 4 22 3 9 7 23 16 37 6 10 14 18 22 25 0 0 1 1 1 1 10 9 11 23 3 34-5 6-12 9-20 9l-1 0c-5 0-10-2-14-6-1 0-8-6-17-17l0 0c-6-6-11-13-15-20-12-20-21-41-26-63-1-8-1-16-1-24l0-110c-28-11-47-38-47-68 0-25 14-49 36-62m-61-335c-10 0-19-5-23-14-15-28-23-59-23-91l0-51c1-13 11-24 25-24 13 0 24 11 24 24l0 51c0 24 6 47 18 68 4 8 5 17 0 25-4 7-12 12-21 12m399 91l0-7c0-5-1-10-3-14-1-3-2-6-4-9l-41-41c-3-3-6-4-9-4-2 0-5 1-7 3l-1 1-18 18-22 22c-6 5-8 17-8 21l0 8c37-8 76-7 113 2m146-253c-18 0-32 14-32 32 0 18 14 32 32 32 18 0 32-14 32-32 0-18-14-32-32-32m142 177c-36 43-89 68-145 68l-82 0c-1 0-1 0-2 0l0 0c-4 0-8 3-10 8l0 17c88 41 146 125 154 221 28 10 47 37 47 68 0 21-9 42-26 55-6 6-13 10-21 13l0 49c-1 13-12 23-25 23-13 0-23-10-24-23l0-165c-1-119-97-216-217-216-53 0-101 17-138 49-28 23-48 54-60 87l-1 2-1 2c0 1 0 1-1 2l-2 5c-4 11-16 18-28 15-11-2-19-13-18-25l0 0c0-3 1-6 3-9 13-43 38-82 72-112 21-23 46-43 74-57l0-1c0-5-4-8-9-8l-85 0c-39 0-77-12-109-35l0 0c-4-2-7-5-9-7-8-4-13-12-13-21 0-10 5-18 14-22 9-4 19-3 26 3l1 1c1 0 1 0 2 1 19 16 42 27 67 30 0 0 1 0 1 0 5 0 5-1 5-3l0-11c-11-3-22-8-32-16-25-19-39-48-40-79l0-84 0-1c1-23 19-41 42-42 0 0 1 0 1 0l11 0c13 0 24 11 25 25 0 6-3 13-8 17-4 5-10 7-17 7l0 0c-3 0-4 1-5 4l0 74c0 27 22 49 49 49 14 0 26-5 35-14 10-9 15-22 15-35l0-72c0 0-1-6-4-6l-9 0c-13 0-24-11-24-24 0-14 11-25 24-25l19 0c0 0 1 0 1 0 23 1 42 20 42 43l0 84c0 37-20 70-53 87-7 4-15 7-23 8l0 6c1 2 4 9 12 9l44 0c3 0 19-1 35-16l41-41 1-1c3-4 9-14 9-31l0-101c0-14 11-25 25-25 13 0 24 11 24 25l0 107c0 14 9 25 12 28l39 39c2 1 22 16 37 16l57 0c1 0 1 0 2 0l0 0c3 0 6-3 7-7l0-80c-16-5-30-14-41-28-11-14-16-31-16-50 0-21 8-42 23-57 16-15 36-24 58-24 45 0 81 37 81 81 0 16-4 31-13 44-10 16-25 28-43 34l0 76c0 8 3 8 4 8l1 0c63-15 107-72 107-136l0-51c0-13 11-24 24-24 13 0 24 11 25 24l0 51c0 44-16 87-44 120" horiz-adv-x="800" />

<glyph glyph-name="drug" unicode="&#xe806;" d="M834 316l-44 0 0 44c-1 13-12 24-25 24-14 0-25-11-26-24l0-44-44 0c-14-1-25-12-25-26 0-14 11-25 25-25l44 0 0-44c1-14 12-25 26-25 13 0 24 11 25 25l0 44 44 0c14 0 26 11 26 25 0 14-12 26-26 26m-672-317c-2 0-3 0-4 0 0 0 0 0-1 0l-66-12c-9-1-18 1-25 6-8 5-13 14-14 23-3 18 9 36 28 39l162 29c11 2 22-1 30-9 4-4 11-7 18-7 7 1 13 4 17 9 10 10 9 26-1 35-19 19-47 27-73 22l-162-29c-47-8-78-52-70-99 4-22 17-42 36-55 18-13 41-18 63-14l66 12c1 0 1 0 1 0 6 1 12 5 16 11 4 5 5 12 4 19-3 12-13 20-25 20m293-79l-165 0c-18 1-33 16-33 35 0 18 15 33 33 34l165 0c19-1 33-16 33-34 0-19-14-34-33-35m0 120l-165 0c-47 0-85-38-85-85 0-47 38-86 85-86l165 0c38 0 71 25 82 60 5 25 0 51 0 51-11 36-44 60-82 60m459 121l0 0c0-10-8-19-18-20l-263 0c-10 1-17 9-18 19l0 260c1 11 10 19 20 19l258 0c12 0 21-9 21-20l0 0 0-258 0 0z m20 434c-17 20-41 34-67 40l0 9c2 10 11 18 22 18l0 0c18 4 32 20 32 39l0 1 0 0 0 93c0 30-25 55-55 55l-48 0c-13 0-24-12-24-25 0-14 11-25 24-26l33 0c11-1 19-10 19-21l0 0 0 0 0-44 0 0 0 0c0-12-9-22-21-22l-2 0 0 6c0 14-12 26-26 26-14 0-25-12-25-26l0-6-23 0 0 6c0 14-12 26-26 26-14 0-25-12-25-26l0-6-24 0 0 6c0 14-11 25-25 25-14 0-25-11-25-25l0-6-24 0 0 6c0 14-11 25-25 25-14 0-25-11-26-25l0-6-23 0 0 6c0 14-12 25-25 25-14 0-25-11-26-25l0-6-5 0c-10 2-18 11-18 21l0 0 0 0 0 45 0 0 0 0c0 11 8 20 19 21l228 0 0 0c13 1 23 12 23 26 0 13-10 24-23 25l0 0-243 0c-30 0-55-25-55-55l0-96c1-19 15-35 34-38l0 0c12 0 21-10 22-21l0-5c-58-12-100-63-100-122l0-403c0-14 12-25 26-25 14 0 25 11 25 25l0 403c0 40 32 72 71 74l1 0c15 0 26 11 27 25l1 0 0 30c1 11 10 19 21 19l0 0 247 0c10-2 16-11 16-21l0 0 0 0 0-2-143 0c-14 0-26-11-26-25 0-14 12-26 26-26l167 0c41 0 73-33 74-74l0-3 0 0c0-9-7-18-16-20l-287 0 0 0c-25 0-45-19-46-43-1-1-1-2-1-3l0-308c1-25 20-45 45-46l285 0c11-1 20-10 20-21l0-1 0 0 0-66 0 0 0 0c0-11-8-20-19-22l-251 0 0 0c-13-1-23-12-23-25 0-14 10-25 23-26l0 0 278 0c23 0 43 20 43 43l0 541c0 30-11 59-31 82l0 0z" horiz-adv-x="968" />

<glyph glyph-name="event" unicode="&#xe807;" d="M684 669c18 8 35 17 52 26l7 4c9 1 18-3 23-11l66-139-54 9-1 0c-12 2-25-5-31-17l-23-46-67 139c-3 10 0 20 8 25 7 3 14 6 20 10m-508-161c34 6 68 12 102 20 10 0 19-7 21-17l0-1 1-1 0-1 0 0 30-146-47 22c-4 2-8 3-13 3-8 0-15-3-21-9l0 0-38-40-23 112c0 0 0 1 0 2l-1 3 0 0c-6 14-20 22-34 20-15-3-25-16-25-30l0-1 0 0 0-1c0-3 1-6 2-9l35-165c1-10 9-19 18-22 5-3 9-3 11-3 8 0 16 4 22 10l61 67 82-40c4-2 9-3 13-3 17 0 30 13 30 30 0 2 0 6-1 9l-45 217c1 2 3 5 6 2l71-208c4-11 14-19 26-20l3 0c10 0 19 5 25 14l52 75 85-27c9-4 20-2 27 3 8 6 13 15 13 25 0 5-1 9-2 11l-58 170-1 0c-2 11-11 20-23 23-11 2-23-2-30-12-7-9-8-22-3-32l0 0 1-2c0 0 0-1 0-2l38-110-52 17-1 0c-12 3-25-2-32-12l-30-44-48 141c-2 11 4 22 15 25l0 0c17 5 34 11 51 17 14 5 29 10 43 15 0 0 23 9 40 16l0 0c5 2 11 3 17 1 5-2 10-6 12-11l0 0 0 0 94-195c5-10 16-17 28-17 11 0 22 7 27 17l40 81 90-15c1 0 2 0 2 0l3 0c16 0 30 13 30 30 0 5-2 11-4 15l-93 192 0 0 0 0c-5 10-2 22 7 29 19 11 37 24 55 36 14 10 17 28 8 42-6 8-15 13-25 13-6 0-12-2-17-5l0 0c-28-20-58-39-89-57-1 0-2-1-3-1-17-10-36-21-55-31l-3-1c-5-3-10-5-14-8l-5-2c-7-3-13-6-19-9-21-10-42-20-63-29-1 0-2-1-2-1-16-7-32-14-48-20-2 0-4-1-7-2-56-22-113-41-171-58-1-1-2-1-3-2-76-21-153-37-231-48l0 0c-35-5-70-8-105-10-17-1-29-15-28-32 1-15 14-28 30-28l0 0c49 2 98 7 146 15m785-277c-3 0-6 0-8-1l-1 0c-101-29-216-47-338-54-1 1-2 1-3 1l-1 0c-22-1-44-2-66-2l0-1c-11 0-21-7-26-17-5-10-4-22 2-31 7-9 18-14 29-13 11 0 22 1 33 1l0-169-43 32c-10 8-25 8-36 0l-42-32 0 169 0 30 0 4c-1 15-14 27-29 28l0 1-1 0 0 0c-1 0-2 0-3 0-122 6-237 24-338 53l-1 0c-2 1-5 1-8 1-13 0-25-9-29-22-2-8-1-16 3-23 4-7 10-12 18-14 22-7 44-12 67-18 7-3 13-10 13-19l-27-220c0 0 0-1 0-2 0-11 5-21 13-26 5-4 11-6 17-6 5 0 10 2 15 4l79 43 65-63c6-6 13-9 21-9 2 0 7 0 12 3 10 4 17 13 18 24l21 172 1 8c0 16-12 29-28 30-16 1-30-11-32-27l0 0-14-116-37 37c-6 5-13 9-21 9-6 0-11-2-16-6l-46-25 18 155c4 10 14 16 24 15l0 0c33-5 66-9 99-12 0 0 27-3 46-5 11-2 19-11 19-23l0 0 0 0 0-209c0-12 7-23 18-27 4-2 8-3 12-3 8 0 15 3 20 9l71 53 73-54c9-7 21-8 32-3 10 5 16 15 16 27l0 2-1 227 6 1 29-236 0 0c2-11 9-21 20-24 5-2 8-2 10-2 8 0 16 3 22 8l65 64 79-44c5-2 9-3 14-3 17 0 30 14 30 30 0 2 0 4-1 6l-21 173-1 5c-3 16-18 26-33 23-15-2-26-16-25-32l0 0 15-121-48 26c-5 2-10 4-15 4-8 0-16-3-21-9l-38-36-18 155c1 11 9 19 19 20l0 0c30 3 59 7 88 12l11 2c0 0 35 6 59 12 27 6 55 13 82 21 8 2 14 7 18 14 4 7 5 15 3 23-4 13-16 22-29 22" horiz-adv-x="1000" />

<glyph glyph-name="forum" unicode="&#xe808;" d="M468 433c-4 0-8 0-11-1l-1-1 0 0c-3-1-6-2-9-4l0 0c-66-31-115-77-147-138-27-54-41-119-41-195l0-162c0-1 0-2 0-2l0-1c-3-16 4-33 18-42 13-9 31-9 45 0 14 8 21 24 19 41 0 0 0 1 0 1 0 1 0 2 0 3l0 162c0 49 0 122 36 170 28 37 40 45 62 59 3 2 7 5 11 7 0 0 36 23 40 25l1 0c12 8 19 22 19 36 0 23-19 42-42 42m426-6c-3 2-5 3-8 4 0 0-1 0-1 0 0 0 0 0 0 0-15 5-31 1-42-10-10-11-15-26-11-41 3-11 10-20 19-25 4-2 40-25 40-25l11-7c22-14 34-22 62-59 36-48 36-121 36-170l0-162c0-1 0-2 0-3 0 0 0-1 1-1 3-20 20-35 41-35 20 1 37 16 40 36 0 0 0 0 0 1 0 0 0 1 0 2l0 162c0 76-14 141-41 195-31 61-81 107-146 138l-1 0z m-3 256c0 0-1 1-1 2-6 14-20 23-35 23-12 0-23-6-30-15-7-9-10-21-7-33l0-1c3-12 5-24 5-37 0-83-68-150-152-150-84 0-152 67-152 150 0 83 68 151 152 151 11 0 23-1 34-4 1 0 2 0 3 0 11-3 24 0 33 7 9 7 15 19 14 31 0 20-16 37-37 38-1 0-1 0-2 1-15 3-30 4-45 4-126 0-228-102-228-228 0-125 102-227 228-227 126 0 228 102 228 227 0 21-2 41-8 61m-850-724c-17 0-33 13-36 31 0 3-11 83 0 175 9 65 42 157 71 198 6 8 14 13 24 15 9 2 19-1 27-6 16-12 20-35 8-51-20-28-50-108-58-166-6-51-6-103 0-154 2-11-1-21-8-29-7-8-17-13-28-13m201 794c-88 0-163-65-176-151 0-1 0-2 0-2l0-1c-1-10 3-19 10-26 7-8 16-12 26-12 9 0 19 4 26 11 6 7 10 16 10 26l0 0c0 1 0 1 0 2 12 47 55 81 104 81 58 0 106-48 106-106 0-58-48-106-106-106-26 0-52 10-71 27 0 1-1 1-1 1-3 5-7 9-11 13 0 1-1 1-1 2-1 1-3 2-4 3l-1 1c-6 4-13 6-20 6-10 0-19-4-26-11-7-7-11-16-11-26 0-10 4-20 11-27 34-38 83-61 135-61 98 0 178 80 178 178 0 98-80 178-178 178m1180-595c-9 70-38 151-61 188-22 36-50 69-83 95-6 6-24 25-8 57l1 0 0 1c0 0 0 0 0 1 13 24 20 51 20 79 0 96-79 174-175 174-3 0-5-1-7-1l0 0c-3 1-5 1-8 1-19-2-34-20-32-39 1-10 6-20 14-26 8-6 19-8 29-6 1 0 3 0 4 0 58 0 104-46 104-103 0-57-46-104-104-104-58 0-104 47-104 104 0 19 5 38 16 55l0 0 0 1c5 6 7 14 6 22-1 13-10 25-22 30-13 5-27 2-37-8 0 0-1 0-1 0-1-1-2-2-2-3-20-28-30-62-30-97 0-96 78-174 174-174 13 0 27 1 40 4l0 0 1 0c4 1 7 2 10 3l1 1c5 0 9 1 14 1 11 0 22-3 32-9 26-18 62-48 90-94 17-27 43-98 52-162 11-88 0-166 0-170-2-8 1-17 6-25 5-7 13-12 22-13 18-2 35 10 38 28 0 4 13 90 0 189" horiz-adv-x="1429" />

<glyph glyph-name="hospital" unicode="&#xe809;" d="M584 717l-34 0c-1 0-1 1-2 1 0 1-1 1-1 2l0 34c0 15-12 28-28 28l-52 0c-16 0-28-13-28-28l0-34c0-1-2-2-3-2l-34 0c-15 0-28-13-28-28l0-53c0-16 13-28 28-28l34 0c1 0 3-1 3-3l0-34c0-15 12-28 28-28l52 0c16 0 28 13 28 28l0 34c0 1 1 1 1 2 1 0 1 1 2 1l34 0c15 0 28 12 28 28l0 53c0 15-13 28-28 28l0-1z m-17-61c0-2-1-3-2-3l-34 0c-7 0-15-3-20-8-5-5-8-13-8-20l0-34c0-1-1-2-2-2l-15 0c-2 0-3 1-3 2l0 34c0 7-3 15-8 20-5 5-13 8-20 8l-34 0c-1 0-2 1-2 3l0 15c0 0 0 1 0 1 1 1 1 1 2 1l34 0c16 0 28 13 28 28l0 34c0 1 0 1 1 2 0 0 1 1 2 1l15 0c1 0 2-2 2-3l0-34c0-7 3-14 8-20 5-5 13-8 20-8l34 0c1 0 1 0 2-1 0 0 1-1 1-1l0-15-1 0z m70-175l-288 0c-14 0-26-11-26-26 0-14 12-25 26-25l288 0c14 0 26 11 26 25 0 15-12 26-26 26l0 0z m-453-38l-88 0c-14 0-26-11-26-26 0-14 12-25 26-25l88 0c14 0 25 11 25 25 0 15-11 26-25 26z m0-149l-88 0c-14 0-26-12-26-26 0-14 12-26 26-26l88 0c14 0 25 12 25 26 0 14-11 26-25 26z m0-150l-88 0c-14 0-24-12-24-25 0-14 10-26 24-26l88 0c9-1 18 4 23 12 5 8 5 19 0 27-5 8-14 13-23 12l0 0z m618 248l92 0c14 0 26 11 26 25 0 15-12 26-26 26l-92 0c-14 0-26-11-26-26 0-14 12-25 26-25l0 0 0 0z m0-150l92 0c14 0 26 12 26 26 0 14-12 26-26 26l-92 0c-14 0-26-12-26-26 0-14 12-26 26-26z m0-149l92 0c14 0 25 12 25 26 0 13-11 25-25 25l-92 0c-14 0-25-12-25-25 0-14 11-26 25-26l0 0z m-165 236l-288 0c-14 0-26-12-26-26 0-14 12-26 26-26l288 0c14 0 26 12 26 26 0 14-12 26-26 26z m0-153l-288 0c-14 0-26-11-26-26 0-14 12-25 26-25l288 0c14 0 26 11 26 25 0 15-12 26-26 26z m315 481l-114 0c-7 0-14-4-18-9-6-8-8-19-3-29 4-8 13-14 23-14l70 0c12 0 22-8 24-19l0-647c0-11-8-20-18-23l-279 0c-12 1-21 11-21 23l0 40c0 18-16 34-34 34l-178 0c-18 0-33-16-33-34l0-45c-2-9-9-16-18-18l-55 0c-10 1-18 8-21 18l0 693c0 16-13 30-29 30l-26 0c-1 0-2 0-3 0l-185 0c-19 0-34-15-34-34l0-725c0-19 15-34 34-34l114 0c7 0 14 3 18 9 7 8 8 19 3 28-4 9-13 15-23 15l-74 0c-9 1-17 7-20 16l0 654c2 11 12 19 24 19l126 0c11 0 21-8 24-18l0-681 0-18c0-6 3-13 7-17 5-5 11-7 18-7l701 0c19 0 34 15 34 34l0 725c0 19-15 34-34 34z m-485-741l-45 0 0 45 45 0 0-45z m97 0l-45 0 0 45 45 0 0-45z m-312 783c7 0 14 3 19 9 5 5 7 12 6 20l0 52c3 10 11 17 21 18l390 0c10-1 18-8 21-18l0-797c0-14 13-25 27-25 14 1 25 13 25 28l0 827c0 10-4 19-11 26-7 7-17 11-27 11l-460 0c-21 0-37-17-37-37l0-89c0-14 12-25 26-25l0 0z" horiz-adv-x="1000" />

<glyph glyph-name="partner-flag" unicode="&#xe80a;" d="M1000 83l-58 50c33 67 50 142 50 217 0 275-225 500-500 500-267 0-492-225-492-500 0-275 225-500 500-500 100 0 200 33 275 83l50-50c58-50 133-50 183 0 50 67 42 150-8 200z m-217 409l-341-342c-9-8-25-17-34-17-8 0-25 9-33 17l-167 167c-16 16-16 41 0 66 17 17 42 17 67 0l133-133 309 308c16 17 41 17 66 0 17-16 17-50 0-66z" horiz-adv-x="1083" />

<glyph glyph-name="promo" unicode="&#xe80b;" d="M396 515c23 10 49-1 58-24 10-23-1-49-24-59-23-9-49 2-59 25-9 23 2 49 25 58l0 0z m53-132c50 21 74 77 54 127-20 50-77 74-127 54-49-20-74-77-54-127 21-49 77-74 127-54l0 0z m129 193l-124-291 0 0c-5-13 2-28 15-34 13-5 28 1 34 14l0 1 123 287 0 2c5 13-1 27-14 33-13 5-28 0-34-12l0 0 0 0z m262 51c13 6 20 21 14 35l-40 99c-20 50-76 74-126 54l-391-158 0 0-2-1c-9-3-16-12-17-22-1-10 4-19 12-25 9-5 19-5 28 0l389 157c23 9 49-2 59-25l24-61c2-10-1-21-9-28-16-15-29-34-37-55-22-63 6-133 66-163 20-10 43-15 66-14 10 0 20-6 25-15l24-60c10-23-1-49-24-58l-54-22 0 0c-12-6-18-20-13-33 5-13 20-20 33-15l0 0 53 21c50 20 74 77 54 127l-40 99c-2 6-7 12-14 14-6 3-13 3-20 0-41-16-88 4-104 45-17 41 3 88 44 104m-114-217c-14-6-20-21-15-35l1-1-1 0c4-21-7-42-27-50-23-9-49 2-58 25-5 13-4 27 2 39 7 11 19 20 32 22 10 0 18 6 22 14 5 9 4 19-1 27-5 8-15 12-24 12l0 0c-30-4-57-21-73-47-16-26-18-58-7-87 20-50 77-74 127-54 45 18 69 67 58 114 0 2-1 4-2 7-6 13-21 19-34 14l0 0z m-139-250l0 0-153-61c-8-2-16 1-20 9l-36 90c-6 13-21 19-34 14-13-5-20-20-15-34l37-90c2-8-1-16-8-20l-84-34c-23-9-49 2-58 25l-24 58c0 0-5 17 8 31l3 2 0 0c16 15 27 33 34 53 14 41 8 86-18 122-25 35-66 55-109 55-22-1-30 15-30 15l-24 59c-9 23 2 49 25 59l69 28 12 5 0 0c9 3 19-1 22-10l1 0 5-13 101-251c6-13 21-19 34-14 14 5 20 20 15 34l-104 258-3 8-9 21-2 5c-9 20-33 29-54 21l-107-43c-50-21-74-77-54-127l40-99c6-14 21-20 34-15 41 17 88-3 105-44 17-41-3-88-44-105-14-5-20-21-15-34l40-99c20-50 77-74 127-54l115 47 198 80 0 0c13 6 19 20 13 33-5 13-19 20-33 15m168 68l-79-32c-13-5-19-20-14-34 5-13 21-20 34-14l78 31c14 6 20 21 15 34-6 14-21 20-34 15m-572 551l-33 0 0 33c0 14-11 25-25 25-13 0-25-11-25-25l0-33-33 0c-13 0-25-11-25-25 0-13 12-25 25-25l33 0 0-33c0-13 12-25 25-25 14 0 25 12 25 25l0 33 33 0c14 0 25 12 25 25 0 14-11 25-25 25m789-654l-33 0 0 33c0 14-11 25-25 25-14 0-25-11-25-25l0-33-33 0c-14 0-25-11-25-25 0-14 11-25 25-25l33 0 0-33c0-14 11-25 25-25 14 0 25 11 25 25l0 33 33 0c14 0 25 11 25 25 0 14-11 25-25 25m-123-146l-33 0 0 34c0 13-11 24-25 25-14-1-25-12-25-25l0-34-33 0c-14 0-25-11-25-25 0-13 11-25 25-25l33 0 0-33c0-13 11-25 25-25 14 0 25 12 25 25l0 33 33 0c14 0 25 12 25 25 0 14-11 25-25 25" horiz-adv-x="1000" />

<glyph glyph-name="telemed" unicode="&#xe80c;" d="M432 325c-7-6-13-9-18-9l0 0c-8 0-14 8-14 8-6 9-18 10-26 4-8-6-10-17-4-25 2-3 16-22 40-24 2 0 3 0 5 0 15 0 29 7 42 20 4 4 6 8 6 13 0 5-2 10-5 13-4 4-8 6-13 6-5 0-10-2-13-6m177 250c6 1 11 4 15 9 4 5 5 11 5 17-4 28-20 53-44 68-24 16-54 19-81 11-5-2-10-6-13-11-3-6-3-12-2-18 2-6 6-10 12-13 5-3 11-4 17-2 14 5 30 3 42-5 13-8 21-21 23-36 1-6 4-12 9-15 5-4 11-6 17-5m57 30c4-3 10-4 15-4 6 1 12 4 15 9 4 5 6 11 5 17-10 77-76 134-153 134-16 0-32-2-47-7-6-2-11-6-13-11-3-6-4-12-2-18 2-6 6-10 11-13 6-3 12-4 18-2 30 10 64 6 91-12 27-17 45-45 49-77 1-7 5-13 11-16m-171 184c5-3 12-4 19-2 16 5 33 8 51 8 83-1 154-63 165-146 1-6 4-11 9-15 4-4 11-5 17-4 6 0 11 4 15 8 4 5 5 11 4 17-14 106-104 185-211 185-21 0-43-3-64-10-6-1-11-5-14-11-2-5-3-12-1-17 2-6 5-10 10-13m-419-610c-19 44-29 92-29 141 0 193 156 349 349 349l2 0c6 0 12 3 17 8 4 5 6 11 6 18-1 12-11 21-23 21l-2 0c-218 0-396-178-396-396 0-109 45-214 125-288 10-9 24-8 33 1 8 9 8 24-1 32-34 32-62 71-81 114m745 120c2 87-25 171-76 241-4 6-11 10-18 10-7 0-14-4-18-9-6-9-6-20 0-28 45-62 68-136 67-212-2-89-37-174-98-238-5-5-7-13-6-19l9-41 14-67c1-2 0-4-1-5-2-1-4-2-6-1l-62 33-42 21c-5 2-11 2-16 0-44-20-92-31-140-32-45 0-89 7-131 23-10 4-20 1-27-7-4-5-6-13-4-20 2-7 7-12 14-15 44-17 91-26 141-26 49 0 99 9 145 27 6 2 12 2 17-1l137-72c8-4 18-4 25 2 8 5 11 15 9 23l-32 147c-1 5 0 10 3 14 61 71 94 160 96 252m-406-91c9 0 18 1 27 3-1-2-1-3-2-5l-22-22c0 0 0 0-1 0l-21 22c-1 1-2 2-3 4 7-1 15-2 22-2m112-98c6 0 11-5 11-11 0-6-5-12-11-12-6 0-12 6-12 12 0 6 6 11 12 11m-241-56l6 0c9 0 17 7 18 17 1 10-5 19-15 21l0 36c0 12 9 21 21 21 11 0 20-10 20-21l0-36-1 0c-10 0-18-9-18-19 0-10 8-19 18-19l11 0c0 0 1 0 1 0 15 1 28 13 28 29l0 45c0 23-14 44-35 54l18 0c1 0 8-1 14-7l23-22c0-1 3-5 3-14l0-54c1-10 9-19 20-19 10 0 18 9 19 19l0 57c0 6 4 11 5 12l20 20c5 4 12 7 16 7l30 0 0-36c-19-8-31-26-31-46 0-28 22-50 50-50 27 0 50 22 50 50 0 20-13 38-31 46l0 34c29-9 49-36 49-67l0-27c0-10 9-19 19-19 10 0 19 9 19 19l0 27c0 29-11 56-31 77-21 20-48 31-77 31l-43 0c-1 0-1 0-1 0l0 4c46 23 77 67 82 119 16 7 26 23 26 40 0 18-10 33-26 41l0 14c0 10-8 19-19 19-10 0-19-9-19-19l0-81c0-61-50-110-111-110-24 0-45 5-61 16-13 8-23 20-29 33l-1 0c-3 10-14 14-24 11l-1-1c-9-4-13-13-10-22 0-3 1-4 2-6 14-26 34-43 64-57l0-1-44 0c-23 0-45-7-63-20l0 0c-2-1-3-2-5-4-6-3-9-9-9-16 0-8 4-14 11-17 6-4 14-3 20 2 0 0 1 1 1 1 5 4 10 7 16 10-15-11-24-29-24-48l0-45 0-1c0-15 12-27 27-28 1 0 1 0 2 0m-43 88c-1 8-8 14-15 16-8 1-16-3-20-10-1-2-2-3-2-5-4-11-4-21-4-34l0-28c0-11 8-19 18-20 5-1 10 1 14 5 4 4 6 9 6 14l0 28c0 2 0 4 0 5 0 7 0 12 2 18l0 0c2 4 2 8 1 11l0 0z m154 364c-9 0-17 5-22 12-4 8-5 17 0 25 4 8 12 13 22 13l91 0c30 0 57-20 66-50l-157 0 0 0z m198-19c0 59-48 107-107 107l-91 0c-22 0-42-10-53-28-7-8-10-24-10-26l0 0c-3-24 7-47 27-61-12-10-27-18-43-22-5-2-10-2-14-3l0 26c0 5 1 9 2 13 1 5 3 10 6 14 2 4 5 8 8 10l0 1c7 7 8 18 1 26-6 7-18 9-26 3-2-3-5-5-7-8-2-3-5-6-7-9-7-12-12-24-15-37 0-5 0-9-1-14l0-55c-15-8-24-23-25-41 0-17 11-34 28-41 3-7 9-12 17-12 9 0 16 6 18 14 1 1 1 2 1 4l0 0c0 2 0 3 0 5 0 1 0 3 0 4l0 57c0 1 0 1 0 2 21 1 62 10 97 50 0 0 1 0 1 0 0 0 1 2 4 2l170 0c5 0 10 2 13 6 4 3 6 8 6 13l0 0z" horiz-adv-x="821" />

<glyph glyph-name="back" unicode="&#xe80d;" d="M534 1l-234 241 1 2c-21 35 19 35 19 35l0 1 768 0c38 0 68 31 68 70 0 39-30 70-68 70l-768 0 0 1c-40 0-26 27-20 37l234 241c26 28 26 72 0 99-13 13-30 21-49 21-18 0-35-8-48-21l-386-398c-13-14-20-31-20-50 0-18 7-36 20-50l386-398c13-13 30-21 48-21 19 0 36 8 49 21 26 28 26 71 0 99l0 0z" horiz-adv-x="1188" />

<glyph glyph-name="bookmark-filled" unicode="&#xe80e;" d="M842 817c-9 12-21 22-35 27-9 4-19 6-29 6l-700 0c-10 0-20-2-29-6-14-5-27-15-35-27-9-12-13-26-13-41l0-852c0-15 4-29 13-41 8-12 20-21 35-27 9-4 19-6 29-6 21 0 39 7 55 22l295 280 294-280c16-14 34-21 56-21 11 0 21 1 29 5 15 6 26 15 35 27 9 12 13 26 13 41l0 852c0 15-4 29-13 41l0 0z" horiz-adv-x="889" />

<glyph glyph-name="bookmark" unicode="&#xe80f;" d="M14 817c9 12 21 21 36 27 10 4 20 6 31 6l727 0c11 0 21-2 31-6 15-5 27-15 36-27 9-12 14-26 14-41l0-852c0-15-5-29-14-41-9-12-21-22-36-27-30-12-64-6-88 16l-307 280-306-280c-16-14-36-22-57-21-12 0-22 1-31 5-15 5-27 14-36 27-9 12-14 26-14 41l0 852c0 15 5 29 14 41z m75-873l294 269 61 56 62-56 294-268 0 820-711 0 0-821 0 0z" horiz-adv-x="889" />

<glyph glyph-name="calendar-check" unicode="&#xe810;" d="M765 728l-91 0 0 99c0 13-11 23-23 23l-77 0c-13 0-23-10-23-23l0-99-245 0 0 99c0 13-10 23-23 23l-76 0c-13 0-23-10-23-23l0-99-92 0c-51 0-92-42-92-92l0-674c0-51 41-92 92-92l673 0c51 0 92 41 92 92l0 674c0 50-41 92-92 92z m-11-766l-651 0c-6 0-11 5-11 12l0 570 673 0 0-570c0-7-5-12-11-12z m-101 384l-273-270c-9-9-23-9-32 0l-144 145c-9 9-9 24 0 33l44 43c9 9 23 9 32 0l85-86 212 211c9 9 24 9 33 0l43-43c9-9 9-24 0-33z" horiz-adv-x="857" />

<glyph glyph-name="calendar" unicode="&#xe811;" d="M931 38l-40-40c-1-1-3-1-4-1-1 1-1 2-1 3l0 29c0 9 5 14 13 14l29 0c2 0 3-1 3-2 1-1 0-2 0-3m85 399c-9 0-18-3-24-9-7-7-10-15-10-24l0-258c0-20-16-36-36-36l-47 0c-46 0-80-35-80-81l0-46c0-21-17-37-37-37l-702 0c-8 0-13 5-13 13l0 445c0 9-3 17-9 24-7 6-16 9-24 9-9 0-18-3-24-9-7-7-10-15-10-24l0-445c0-46 35-80 80-80l732 0c35 0 68 14 90 38l109 110c24 24 38 57 38 89l0 288c1 9-3 17-9 24-6 6-15 10-24 9m-585-155c27 2 49 24 49 52 0 27-22 49-49 51-27-2-49-24-49-51 0-28 22-50 49-52m187 0c28 2 49 24 49 52 0 27-21 49-49 51-27-2-49-24-49-51 0-28 22-50 49-52m239 52c0 20-13 39-32 47-19 8-41 3-56-11-14-15-19-37-11-56 8-19 27-32 47-32 29 0 51 23 51 51m-561-210c-1 27-24 49-51 49-27 0-50-22-51-49 0-28 23-51 51-51 28 0 51 23 51 51m136-51c27 1 49 24 49 51 0 27-22 50-49 51-27-1-49-24-49-51 0-27 22-50 49-51m187 0c28 1 49 24 49 51 0 27-21 50-49 51-27-1-49-24-49-51 0-27 22-50 49-51m351 693l-76 0c-1 0-2 0-3-1l-1 0c-16-2-29-16-29-33 0-17 13-31 29-33l1 0c1 0 2 0 3 0l76 0c9 0 13-5 13-14l0-140c0 0 0 0 0 0-1-7-7-12-14-13l-886 0c-8 1-14 7-15 15l0 138c0 9 5 14 13 14l77 0c18 1 32 15 32 33 0 18-14 33-32 34l-77 0c-45 0-80-35-80-81l0-172 0-1c5-26 26-45 51-47l940 0 1 0 0 0c30 0 56 24 57 55l0 165c0 46-34 81-80 81m-187-208c31 0 57 26 57 57 0 18-9 35-22 45-1 0-2 1-2 2l0 140c1 9-3 18-9 24-6 7-15 10-24 10-9 0-18-3-24-10-6-6-10-15-9-24l0-140c0-1-1-2-2-2-13-10-22-27-22-45 0-31 26-57 57-57m-515 0c32 0 57 26 57 57 0 18-8 35-22 45-1 0-1 1-1 2l0 37 0 73 0 30c0 9-3 18-10 24-6 7-15 10-24 10-9 0-17-3-24-10-6-6-9-15-9-24l0-140c0-1 0-2-1-2-14-11-22-27-22-45 0-31 25-57 56-57m115 141l285 0c18 0 33 15 33 33 0 19-15 34-33 34l-285 0c-18-1-32-16-32-34 0-18 14-32 32-33" horiz-adv-x="1053" />

<glyph glyph-name="chat" unicode="&#xe812;" d="M944 798l-837 0c-45 0-81-38-81-84l0-502c0-46 36-83 81-83l48 0 0-207c0-10 6-18 14-22 9-4 19-2 26 5l217 224 532 0c45 0 82 37 82 83l0 502c0 46-37 84-82 84l0 0z m0-622l-541 0c-6 0-12-2-16-6l0 0-1-1-185-189 0 173 0 2c-1 12-11 21-23 21l-71 0c-19 1-35 17-35 36l0 502c0 20 16 36 35 36l837 0c19 0 35-16 35-36l0-502c0-19-15-35-35-36l0 0z m-578 448l-136 0c-6 0-12-3-17-8-4-4-6-10-6-16 0-13 10-24 23-24l135 0c7 0 13 3 17 7 4 4 7 10 7 17 0 6-3 12-7 16-4 5-10 8-17 8l1 0z m241-137l-377 0c-6 0-12-3-17-7-4-5-6-11-6-17 0-13 10-24 23-24l377 0c7 0 12 3 17 7 4 5 7 11 7 17 0 6-3 12-7 17-5 4-10 7-17 7l0 0z m214 137l-320 0c-6 0-12-3-16-8-5-4-7-10-7-16 0-13 10-24 23-24l320 0c7 0 13 3 17 7 4 4 7 10 7 17 0 6-3 12-7 16-4 5-10 8-17 8l0 0z m0-137l-84 0c-6 0-12-3-16-7-5-5-7-11-7-17 0-13 10-24 23-24l84 0c7 0 13 3 17 7 4 5 7 11 7 17 0 6-3 12-7 17-4 4-10 7-17 7l0 0z m-380-136l-211 0c-6-1-12-3-17-8-4-4-6-10-6-16 0-13 10-24 23-24l211 0c6 0 12 2 16 7 5 4 7 10 7 17 0 6-2 12-7 16-4 5-10 7-16 8l0 0z m380 0l-257 0c-6-1-12-3-16-8-5-4-7-10-7-16 0-13 10-24 23-24l257 0c7 0 13 2 17 7 4 4 7 10 7 17 0 6-3 12-7 16-4 5-10 7-17 8l0 0z" horiz-adv-x="1077" />

<glyph glyph-name="category" unicode="&#xe813;" d="M844 650l-479 0c-27 0-49-22-49-50 0-27 22-49 49-49l479 0c27 0 50 22 50 49 0 28-23 50-50 50m0-230l-479 0c-27 0-49-23-49-50 0-28 22-50 49-50l479 0c27 0 50 22 50 50 0 27-23 50-50 50m0-231l-479 0c-27 0-49-22-49-50 0-27 22-50 49-50l479 0c27 0 50 23 50 50 0 28-23 50-50 50m-644 461c-28 0-50-22-50-50 0-27 22-49 50-49 27 0 50 22 50 49 0 28-23 50-50 50m0-230c-28 0-50-23-50-50 0-28 22-50 50-50 27 0 50 22 50 50 0 27-23 50-50 50m0-231c-28 0-50-22-50-50 0-27 22-50 50-50 27 0 50 23 50 50 0 28-23 50-50 50" horiz-adv-x="1000" />

<glyph glyph-name="check-circle" unicode="&#xe814;" d="M1000 350c0-276-224-500-500-500-276 0-500 224-500 500 0 276 224 500 500 500 276 0 500-224 500-500z m-558-265l371 371c13 13 13 33 0 46l-45 46c-13 12-33 12-46 0l-303-303-141 141c-12 13-33 13-45 0l-46-45c-13-13-13-33 0-46l210-210c12-12 33-12 45 0l0 0z" horiz-adv-x="1000" />

<glyph glyph-name="chevron-circle-right" unicode="&#xe815;" d="M500 850c276 0 500-224 500-500 0-276-224-500-500-500-276 0-500 224-500 500 0 276 224 500 500 500z m230-466l-273 274c-19 18-50 18-69 0l-34-35c-19-19-19-49 0-68l205-205-205-205c-19-19-19-49 0-68l34-34c19-19 50-19 69 0l273 273c19 19 19 49 0 68z" horiz-adv-x="1000" />

<glyph glyph-name="chevron-circle-up" unicode="&#xe816;" d="M0 350c0 276 224 500 500 500 276 0 500-224 500-500 0-276-224-500-500-500-276 0-500 224-500 500z m466 230l-273-273c-19-19-19-50 0-69l34-34c19-19 49-19 68 0l205 205 205-205c19-19 49-19 68 0l35 34c18 19 18 50 0 69l-274 273c-19 19-49 19-68 0z" horiz-adv-x="1000" />

<glyph glyph-name="chevron-down" unicode="&#xe817;" d="M471 131l-334 330c-16 16-16 42 0 57l39 39c16 16 42 16 58 0l266-261 266 261c16 16 42 16 58 0l39-39c16-15 16-41 0-57l-334-330c-16-16-42-16-58 0z" horiz-adv-x="1000" />

<glyph glyph-name="chevron-right" unicode="&#xe818;" d="M713 327l-330-334c-16-16-41-16-57 0l-39 39c-16 16-16 42 0 58l261 266-261 266c-16 16-16 42 0 58l39 39c16 16 41 16 57 0l330-334c16-16 16-42 0-58z" horiz-adv-x="1000" />

<glyph glyph-name="chevron-left" unicode="&#xe819;" d="M287 373l330 334c16 16 42 16 57 0l39-39c16-16 16-42 0-58l-261-266 261-266c16-16 16-42 0-58l-39-39c-15-16-41-16-57 0l-330 334c-16 16-16 42 0 58z" horiz-adv-x="1000" />

<glyph glyph-name="chevron-up" unicode="&#xe81a;" d="M529 557l334-330c16-16 16-42 0-57l-39-39c-16-16-42-16-58 0l-266 261-266-261c-16-16-42-16-58 0l-39 39c-16 15-16 41 0 57l334 330c16 16 42 16 58 0z" horiz-adv-x="1000" />

<glyph glyph-name="circle" unicode="&#xe81b;" d="M500 850c-276 0-500-224-500-500 0-276 224-500 500-500 276 0 500 224 500 500 0 276-224 500-500 500z m0-903c-223 0-403 180-403 403 0 223 180 403 403 403 223 0 403-180 403-403 0-223-180-403-403-403z" horiz-adv-x="1000" />

<glyph glyph-name="clock" unicode="&#xe81c;" d="M500 850c-276 0-500-224-500-500 0-276 224-500 500-500 276 0 500 224 500 500 0 276-224 500-500 500z m0-903c-223 0-403 180-403 403 0 223 180 403 403 403 223 0 403-180 403-403 0-223-180-403-403-403z m125 210l-172 125c-6 4-9 12-9 19l0 331c0 14 10 25 24 25l64 0c14 0 25-11 25-25l0-285 134-98c11-8 13-23 5-34l-37-52c-8-11-23-14-34-6z" horiz-adv-x="1000" />

<glyph glyph-name="close" unicode="&#xe81d;" d="M588 350l394 393c16 16 22 39 16 61-6 21-23 38-44 44-22 6-45 0-61-16l-393-394-393 394c-16 16-39 22-61 16-21-6-38-23-44-44-6-22 1-45 16-61l394-393-394-393c-15-16-22-39-16-61 6-21 23-38 44-44 22-6 45 0 61 16l393 394 393-394c12-12 28-18 45-18 16 0 32 6 44 18 11 12 18 28 18 44 0 17-7 33-18 45l-394 393z" horiz-adv-x="1000" />

<glyph glyph-name="dot-circle" unicode="&#xe81e;" d="M500 753c223 0 403-180 403-403 0-223-180-403-403-403-223 0-403 180-403 403 0 223 180 403 403 403l0 0z m0 97c-276 0-500-224-500-500 0-276 224-500 500-500 276 0 500 224 500 500 0 276-224 500-500 500z m0-339c-89 0-161-72-161-161 0-89 72-161 161-161 89 0 161 72 161 161 0 89-72 161-161 161z" horiz-adv-x="1000" />

<glyph glyph-name="edit" unicode="&#xe81f;" d="M934 785c-86 87-226 87-312 0l-571-571c-5-4-7-10-8-16l-43-314c-1-9 2-18 8-24 6-5 13-9 21-9 1 0 2 0 3 1l189 25c16 2 27 17 25 33-2 15-17 26-32 24l-152-20 30 219 230-231c5-5 13-8 20-8 8 0 15 3 20 8l572 572c42 41 65 97 65 156 0 59-23 114-65 155z m-301-70l96-96-521-521-96 96 521 521z m-291-752l-93 94 521 522 94-94-522-522z m562 563l-230 229c30 24 66 38 104 38 44 0 85-17 116-48 30-31 47-72 47-115 0-39-13-75-37-104z" horiz-adv-x="1000" />

<glyph glyph-name="exclamation-circle" unicode="&#xe820;" d="M1000 350c0-276-224-500-500-500-276 0-500 224-500 500 0 276 224 500 500 500 276 0 500-224 500-500z m-500-101c-51 0-93-41-93-92 0-52 42-93 93-93 51 0 93 41 93 93 0 51-42 92-93 92z m-88 334l15-275c1-12 11-22 24-22l98 0c13 0 23 10 24 22l15 275c1 13-10 25-24 25l-128 0c-14 0-25-12-24-25l0 0z" horiz-adv-x="1000" />

<glyph glyph-name="check-square" unicode="&#xe821;" d="M893-150l-786 0c-59 0-107 48-107 107l0 786c0 59 48 107 107 107l786 0c59 0 107-48 107-107l0-786c0-59-48-107-107-107z m-457 219l411 411c14 14 14 36 0 50l-51 51c-14 14-36 14-50 0l-335-335-157 156c-14 14-36 14-50 0l-51-50c-14-14-14-37 0-51l233-232c13-14 36-14 50 0l0 0z" horiz-adv-x="1000" />

<glyph glyph-name="exclamation-triangle" unicode="&#xe822;" d="M1099-9c35-63-9-141-81-141l-925 0c-72 0-116 78-80 141l462 812c36 63 125 63 161 0l463-812z m-543 168c-49 0-89-41-89-90 0-50 40-90 89-90 49 0 88 40 88 90 0 49-39 90-88 90z m-85 323l15-266c0-12 10-22 23-22l93 0c13 0 23 10 24 22l14 266c1 13-10 24-23 24l-123 0c-13 0-23-11-23-24l0 0z" horiz-adv-x="1111" />

<glyph glyph-name="chevron-circle-down" unicode="&#xe823;" d="M1000 350c0-276-224-500-500-500-276 0-500 224-500 500 0 276 224 500 500 500 276 0 500-224 500-500z m-466-230l274 274c18 19 18 49 0 68l-35 34c-19 19-49 19-68 0l-205-205-205 205c-19 19-49 19-68 0l-34-34c-19-19-19-50 0-68l273-274c19-19 49-19 68 0z" horiz-adv-x="1000" />

<glyph glyph-name="chevron-circle-left" unicode="&#xe824;" d="M500-150c-276 0-500 224-500 500 0 276 224 500 500 500 276 0 500-224 500-500 0-276-224-500-500-500z m-230 466l274-273c19-19 49-19 68 0l34 34c19 19 19 49 0 68l-205 205 205 205c19 19 19 49 0 68l-34 35c-19 18-50 18-68 0l-274-274c-19-19-19-49 0-68z" horiz-adv-x="1000" />

<glyph glyph-name="exclamation" unicode="&#xe825;" d="M300 6c0-86-67-156-150-156-83 0-150 70-150 156 0 86 67 157 150 157 83 0 150-71 150-157z m-283 795l26-531c1-25 21-45 45-45l124 0c24 0 44 20 45 45l26 531c1 27-20 49-45 49l-176 0c-25 0-46-22-45-49z" horiz-adv-x="300" />

<glyph glyph-name="eyes" unicode="&#xe826;" d="M706 15c-285 0-490 291-531 355 40 59 232 315 531 315 306 0 494-258 532-316-36-62-223-354-532-354m0 717c-248 0-470-166-588-362 119-201 340-402 588-402 259 0 478 191 588 403-116 196-336 361-588 361m0-573c-109 0-196 86-196 191s88 191 196 191c108 0 196-85 196-191s-88-191-196-191m0 430c-136 0-245-107-245-239 0-132 109-239 245-239 135 0 245 107 245 239 0 132-110 239-245 239" horiz-adv-x="1412" />

<glyph glyph-name="filter" unicode="&#xe827;" d="M869 700l-690 0c-16 0-29-13-29-29 0-82 35-159 96-213l128-114c22-20 35-48 35-78l0-285c0-24 26-38 45-25l173 115c8 6 13 15 13 25l0 170c0 30 13 58 35 78l128 114c61 54 96 131 96 213 0 16-14 29-30 29z m-105-199l-128-114c-35-30-55-75-55-121l0-155-114-76 0 231c0 46-20 91-54 121l-128 114c-41 37-68 87-75 141l628 0c-7-54-33-104-74-141z" horiz-adv-x="1000" />

<glyph glyph-name="home" unicode="&#xe828;" d="M979 382c0 0 14-13 15-40 0-27 19 40 19 40l-28 10-6-10z m61 34l-421 287c-6 4-12 6-19 6-7 0-14-2-20-6l-424-287c-8-5-14-13-17-22l0 0c-1-3-1-6-1-9 0-19 15-35 35-35 5 0 11 1 16 4l0 0c2 1 4 3 6 4l21 15 363 247 3 1c5 3 10 5 16 5 7 0 14-2 19-6l370-251 4-436 0-41c0 0 0-1 0-1 4-12 13-21 25-25 0 0 1 0 1 0l9 0c9 0 18 3 24 10 7 7 10 16 10 25l-3 486c-1 12-7 23-17 29l0 0z m157 20c-2 9-7 17-15 22l-390 263-3 2-1 1-1 0-6 5c-2 1-4 2-6 3-16 7-34 1-43-14-10-15-6-34 7-46 2-1 4-2 5-3l400-269c5-4 12-6 19-6 12 0 23 6 29 16 5 8 7 17 5 26l0 0z m-301-500l-346 0c-26 0-27 25-27 30l0 234c0 5 1 30 27 30l97 0c19 0 25-13 27-24l0-190c0-19 15-35 35-35 10 0 20 5 27 13 6 8 9 18 7 28l0 226 0 1c-2 14-11 47-56 51l-176 0c-52-4-57-48-57-58-1 0-1-1-1-1l0-271c0-1-1-2-1-3 0 0 0-15-8-24-5-5-12-7-19-7l-193 0c-1 0-1 0-2 1l0 0c-12 0-22 9-23 20l0 316 0 1c-1 18-16 32-34 32-19 0-34-14-35-33l0-335c0-1 0-1 0-2 1-38 32-70 71-70l688 0c9 0 18 4 25 10 6 7 9 15 9 25 0 19-16 35-35 35l0 0z m-302 828c7 0 14-3 20-7l47-31c3-3 7-6 10-8l1 0c5-4 12-6 18-6 14 0 26 8 32 20 6 12 4 26-4 37l0 0c-2 2-5 5-5 6-1 0-1 0-1 0l-99 67 0 0c-6 4-13 6-20 6-6 0-12-2-17-6l-562-384c-15-12-18-32-8-48 6-10 17-16 29-16 6 0 13 2 18 6l526 360c5 2 10 4 15 4l0 0z" horiz-adv-x="1200" />

<glyph glyph-name="inbox" unicode="&#xe829;" d="M1132 831l-746 0 0 0c-20-1-37-19-37-40 0-21 17-38 37-39l0 0 746 0c33 0 60-27 60-60l0-675c0-33-27-60-60-60l-93 0 0 0c-21-2-37-19-37-40 0-21 16-38 37-39l0 0 93 0c77 0 139 62 139 139l0 675c0 77-62 139-139 139m-33-228c15 15 16 39 1 55-14 15-38 17-54 4l-397-361c-7-7-19-7-27 0l-397 361c-16 13-40 12-54-4-15-16-14-40 1-55l240-218c9-10 10-25 3-37l-244-244c-10-10-14-24-11-38 4-14 15-24 28-28 14-4 29 0 39 10l248 249c12 8 28 6 38-4l56-51c38-34 96-34 134 0l62 57c10 5 22 4 31-2l249-249c7-7 17-12 28-12 10 0 20 5 28 12 7 8 11 18 11 28 0 11-4 21-11 28l-245 245c-7 11-6 24 1 34l242 220 0 0z m-220-646l0 0-740 0c-33 0-59 27-60 60l0 675c0 33 27 60 60 60l87 0 0 0c21 2 36 19 36 39 0 21-15 38-36 40l0 0-87 0c-77 0-139-62-139-139l0-675c0-77 62-139 139-139l740 0 0 0c21 1 38 18 38 39 0 22-17 39-38 40" horiz-adv-x="1278" />

<glyph glyph-name="info" unicode="&#xe82a;" d="M495 490l-1 0c-20 0-36-17-36-37l0-325c0-20 16-36 36-36l1 0c9-1 19 3 26 10 7 7 10 17 10 26l0 325c1 10-3 19-10 26-7 7-16 11-26 11l0 0 0 0z m0 116l-3 0c-19-1-34-17-34-36 0-20 16-36 37-36 20 0 36 16 36 36 0 20-16 36-36 36l0 0z m-294-566l0 0c-86 79-135 192-135 309 0 234 192 423 429 423 80 0 154-22 218-59 10-8 23-9 35-3 11 5 18 16 18 29 0 10-5 20-13 26l0 0c-78 47-167 72-258 72-273 0-495-219-495-488 0-138 58-262 151-351 7-9 17-14 27-14 18 0 33 15 33 33 0 9-4 17-10 23m675 620l-1 0c-6 7-15 11-25 11-8 0-17-3-23-9-6-6-10-15-10-23 0-10 5-18 11-24 62-75 95-169 95-266 0-234-191-423-428-423-59 0-116 12-167 33-5 3-11 4-16 4-18 0-33-14-33-32 0-10 4-18 10-24 3-3 7-5 11-7l-1 1 0 0c60-26 126-40 196-40 272 0 494 219 494 488 0 118-43 226-113 311" horiz-adv-x="1000" />

<glyph glyph-name="insurance-buy" unicode="&#xe82b;" d="M591 390l-433 0c-15 0-26-12-26-26 0-15 11-27 26-27l433 0c15 0 27 12 27 27 0 14-12 26-27 26m0-146l-433 0c-15 0-26-12-26-26 0-15 11-26 26-26l433 0c15 0 27 11 27 26 0 14-12 26-27 26m0-146l-433 0c-15 0-26-12-26-26 0-15 11-26 26-26l433 0c15 0 27 11 27 26 0 14-12 26-27 26m-432 385l168 0c14 0 26 12 26 26 0 15-12 27-26 27l-168 0c-9 0-18-5-23-14-4-8-4-18 0-26 5-8 14-13 23-13m756-310l0 0c0-11-8-20-19-21l-35 0c-10 0-17 7-19 16l0 457c0 9 11 15 15 15l44 0c4 0 14-6 14-15l0-452 0 0z m-11-86l-25-84-26 84c-4 11 6 12 9 12l32 0c0 0 14 0 10-12l0 0z m63 538c0 37-27 67-61 67l-55 0c-34 0-61-30-61-67l0-489c0-3 0-5 0-7-1-4 0-8 1-11 1-8 2-16 5-24l58-187c3-11 13-19 24-19 12 0 22 8 25 19l58 187c2 8 4 16 5 24 1 3 2 7 1 11 0 2 0 4 0 7l0 489 0 0z m-221-76c0 2 0 3 0 4l0 0c0 1-1 2-1 3l0 1c-1 1-1 2-2 3 0 0 0 0 0 0 0 1-1 2-1 3l-1 1c-1 0-1 1-2 2l0 0-268 268-7 7c-11 7-25 6-34-3-9-9-10-23-4-33l9-9 35-35 171-171c0 0 16-16-8-16l-144 0c-9 0-17 6-19 16l0 92c0 14-12 26-26 26-14 0-26-12-26-26l0 0 0-134c0-15 12-26 26-26l235 0c9-2 15-10 15-19l0 0 0-352c0-14 12-26 26-26 15 0 26 12 26 26l0 397 0 1 0 0m-26-498c-14 0-26-12-26-26l0-65c0-22-18-41-40-41l-406 0c-14 0-26-11-26-26 0-14 12-26 26-26l406 0c51 0 92 42 92 93l0 65c0 14-11 26-26 26m-584-132l-1 0 0 0-49 0c-19 0-34 15-34 34l0 815c0 16 14 30 30 30l258 0c14 0 26 11 26 26 0 14-12 26-26 26l-258 0c-45 0-82-37-82-82l0-815c0-48 38-86 86-86l49 0 0 0 1 0c15 0 26 12 26 26 0 15-11 26-26 26" horiz-adv-x="968" />

<glyph glyph-name="insurance-link" unicode="&#xe82c;" d="M859 96c0-11-9-19-20-19l-87 0c-11 0-19 8-19 19l0 93c0 11 8 19 19 19l88 0c11 0 20-8 20-19l-1-93 0 0z m11 174l-149 0c-27 0-49-22-49-50l0-156c0-28 22-51 49-51l149 0c27 0 49 23 49 51l0 156c0 28-22 50-49 50l0 0z m20 119l-189 0c-16 0-29-13-29-28 0-15 13-27 29-27l189 0c16 0 29 12 29 27 0 15-13 28-29 28z m-741-370c5-5 12-8 19-8l393 0c15 0 27 12 27 27 0 15-12 27-27 28l-392 0 0-2 0 2c-16-1-28-13-28-28 0-7 3-14 8-19l0 0z m741 477l-78 0c-15 0-27-13-27-28 0-15 12-27 27-27l78 0c7 0 14 3 19 8 5 5 8 12 8 19 0 16-12 28-27 28l0 0z m-325-287l-78 0c-15 0-27-12-27-27 0-15 12-28 27-28l78 0c7 0 14 3 19 8 5 6 8 13 8 20 0 15-13 27-27 27l0 0z m298 416l-1 0c-15-1-27-13-27-28 0-8 3-15 9-20 6-6 14-8 21-7l61 0c39 0 71-32 71-72l0-492c0-40-32-72-71-72-1 0-2-1-2-1l-582 0c0 0-1 0-2 0-7 0-14-3-19-8-5-5-7-12-7-19 0-15 12-27 26-27l586 0c69 0 125 57 125 127l0 492c0 70-56 127-125 127l-63 0z m-665-692l-73 0c-39 0-71 32-71 71l0 309c1 6 1 74 0 80l0 105c0 40 32 72 71 72l134 0c8-1 15 1 21 7 6 5 9 12 9 20 0 15-12 27-27 28l-137 0c-69 0-125-57-125-127l0-492c0-70 56-127 125-127l75 0c15 0 26 12 26 27 0 7-3 14-8 19-6 6-13 8-20 8l0 0z m565 845c-27 27-63 42-101 42-37 0-73-15-100-42l-100-102c-9-9-9-23 0-32 4-4 9-6 15-6 6 0 11 2 16 6l100 102c18 19 43 29 69 29 27 0 52-10 70-29 19-19 29-44 29-71 0-26-10-51-29-70l-131-134c-19-18-44-29-70-29-26 0-51 11-69 29-4 5-10 7-16 7-6 0-11-2-15-7-9-8-9-22 0-31 26-27 62-42 100-42 37 0 73 14 101 42l131 133c27 28 42 64 41 102 1 39-14 75-41 103l0 0z m-325-445l-85-86c-19-19-43-29-70-29-26 0-51 10-69 29-38 39-38 102 0 141l124 126c18 19 43 29 69 29 26 0 51-10 70-29 4-4 9-6 15-6 6 0 11 2 15 6 9 9 9 23 0 31-26 27-62 43-100 43-38 0-74-16-100-43l-124-125c-27-27-42-64-41-102 0-39 14-75 41-102 26-27 63-42 100-42 38 0 74 15 101 42l85 86c8 9 8 23 0 31-4 5-10 7-16 7-5 0-11-2-15-7l0 0z" horiz-adv-x="1061" />

<glyph glyph-name="insurance" unicode="&#xe82d;" d="M594 324l0 0c6 4 9 11 9 18 0 9-6 17-14 21-8 4-18 3-25-3-1 0-1-1-2-1-10-10-21-19-34-28-25-17-52-30-81-40l-1 0 0 0 0 0-3-1c-4-1-9-2-13-2-5 0-14 3-18 5l-1 0c-28 9-55 22-80 39-36 25-63 55-78 90l0 0c-1 0-1 0-1 0-5 11-10 30-11 37-3 14-5 27-5 41l0 149c0 12-11 22-23 22-13 0-23-10-24-22l0-149c0-98 55-162 100-198 24-18 50-33 78-45 23-10 46-16 61-17l0 0 4 0c26 1 87 22 138 62 9 7 17 14 24 22m-162 416l0 0c-13 0-24-11-24-24l-1-379c0-8 4-15 10-20 6-4 14-5 22-3 2 1 72 26 109 63 31 31 49 74 53 94 2 7 0 14-5 20-4 5-11 8-18 8-11 0-21-7-23-18-3-12-17-46-41-70-15-16-39-29-59-39l1 344c0 13-11 24-24 24m-111-708l0 105c0 23-8 45-24 61l-99 109 0 0c-13 13-27 20-41 22 0 0 0 0-1 0 0 0 0 1 0 1-3 0-6 0-9 0-11 0-24-2-26-3 0 0-1 0-2 0-19-9-34-25-40-46-6-21-1-43 12-61l59-75c5-6 12-9 19-9 5 0 10 1 14 4 10 8 12 24 5 34l0 0-59 75c-6 7-7 15-3 22 4 8 12 13 21 14 5 0 11-3 16-8l99-108c7-9 11-19 11-31l0-104-127 0c1 2 2 5 2 8 0 22-1 47-21 71l-70 89-1 1c-6 8-10 20-8 32l27 267c1 6 5 9 10 9 0 0 1 0 1 0 17-2 29-17 29-35l0-103c0-13 11-24 24-24 14 0 25 11 25 24l0 102c0 40-29 75-69 82-3 1-6 1-9 1-30 0-55-23-59-52l-27-266 0 0c-1-24 6-49 20-66l71-91c10-12 10-25 10-39l0-3c0-3 0-6 2-9-28-4-50-29-50-58l0-50c0-32 27-59 59-59l0 0c1 0 2 0 2 0l1 0c2 0 3 1 4 1 11 3 19 13 19 24 0 11-7 20-18 23-2 1-3 1-5 1l-6 0c-6 1-11 5-11 11l0 50c0 6 5 11 11 11l202 0c5 0 11-5 11-11l0-50c-1-6-5-10-11-11l-110 0c-13 0-24-12-23-25 0-14 12-24 25-24l111 0c31 0 58 27 58 59l0 49c0 1 0 1 0 2-3 29-24 52-51 57m-71 2l0 0c13 0 24 10 24 23l16 0 0-40-40 0 0 17z m-79 0l0 0c-6 0-12 2-17 6-4 5-6 11-6 17l-17 0 0-40 40 0 0 17 0 0z m-70 18c0 0 0-18-16-26l0-7 27 0 0 33-11 0 0 0z m220 0c0 0-2-17 21-29l0-6-29 0 0 35 8 0z m349 120l0 0c-4-6-5-13-4-19 1-6 4-11 9-14 5-3 10-5 15-5 7 0 14 4 19 10l58 75c13 17 18 40 12 61-6 20-21 37-40 45-13 7-31 7-32 7l-1 0c0 0-1 0-1 0-17-2-32-10-42-22l-99-109c-15-17-24-39-24-61l0-59c0-12 10-22 23-22 12 0 22 10 22 22l0 55c1 14 5 24 12 31l1 0 99 109c5 5 10 7 15 7 9 0 17-5 20-13 4-8 3-15-3-22l-59-76 0 0z m100-89c0 0 0 0 0 0l71 91c14 17 22 42 20 66l0 0-27 267c-3 30-28 53-58 52-3 0-6 0-10 0-40-7-69-41-69-83l0-102c0-8 5-16 12-21 8-4 17-3 24 1 7 5 11 14 10 22l0 99c0 17 12 31 29 35 1 0 1 0 2 0 5 0 9-4 9-8l0-1 27-267c2-11-2-22-8-32l-71-90c-22-27-21-54-20-74 0-4 0-7 0-11l0-10c0-1 0-2 0-3l0 0c1-15 12-26 26-28 1 0 2 0 3 0l11 0c6-1 10-5 10-11l0-50c-1-6-5-10-11-11l-125 0c-12 0-22-10-22-23 0-12 10-22 22-23l128 0c31 0 58 27 58 59l0 50c0 29-20 52-49 57l-1 5c-1 10-2 20 1 30 2 5 4 9 8 14m-208-169c-1 0-1 0-2 0l-11 0c-6 1-11 5-11 11l0 50c0 6 5 11 11 11l103 0c13 0 23 10 23 23 0 13-10 23-23 23l-116 0c-1 0-1 0-2 0-1 0-7-2-14-5l-1-1c-6-4-12-9-16-15-7-10-11-22-11-34l0-50c0-32 27-59 59-59l9 0c12 0 22 10 23 22 0 12-9 23-21 24m-78 760c-2 1-3 2-4 3 1-1 2-2 4-3m100 13c-2 0-25 4-50 13-9 4-17 8-25 13l0 0c-10 8-24 6-32-4-8-9-7-23 3-32l4-3c9-5 21-12 33-17 16-6 29-10 41-13l0-109c1-13 11-22 23-22 12 0 22 9 23 22l0 129c0 12-8 21-20 23m56-304c1 1 2 3 3 4-1-1-2-3-3-4m13 357l-1 0c-1 0-3 0-5 0-96 0-199 102-200 103-9 9-22 10-32 2-1-1-2-2-3-3-8-8-107-102-199-102-13 0-24-11-24-24 1-12 11-22 23-22l18 0c41 4 107 22 190 92l0 0 5 4 3 2c1 1 1 1 2 1 2 0 3-1 5-2l0 0 0-1 1 0c1-1 2-2 3-3l0-1c80-66 143-87 184-91l0-196c0-13-1-25-3-36l0 0-1-4c0-1 0-2 0-3-3-9-6-19-9-28l0 0 0-1 0 0 0-1c-1 0-1-1-1-1-2-6-5-11-8-16l0-1c-6-10-3-24 8-31 10-7 24-4 31 6l3 4c18 35 28 73 28 113l0 222c0 10-8 18-18 18" horiz-adv-x="882" />

<glyph glyph-name="location" unicode="&#xe82e;" d="M612 616c0-1 8-15 14-40 0-1 1-2 1-3l0 0c4-19 7-39 7-59 0-57-31-143-92-257-49-89-102-175-160-257-1-1-11-16-27-41l0 0c-9-13-11-32 5-45l2-1c5-3 11-5 18-6 10 0 20 5 26 13 55 75 105 151 152 230 65 110 142 263 142 364 0 24-3 48-8 71l0 0c0 2 0 5-1 7-4 18-10 35-18 52l-1 1c-1 2-2 4-2 4-10 15-30 20-45 11-16-9-21-28-13-44m-324-603l8-14c5-8 12-13 21-15 8-2 17 0 24 4 8 5 13 12 15 21 2 8 1 17-4 25l-8 12c0 1-1 2-1 3l-8 12-15 24c0 1-1 3-2 4-35 55-68 111-99 168-61 114-92 200-92 257 0 140 113 253 253 253 58 0 114-20 159-56 7-6 13-12 18-18 13-12 33-12 47 0 13 11 15 32 4 46-24 27-49 42-50 43-2 1-4 2-6 3-51 33-111 50-172 50-177 0-321-144-321-321 0-101 77-254 142-364 26-44 55-90 86-137m97 436l-1-1c-13 0-24-8-30-19-6-12-5-25 2-36 6-11 19-17 32-16l1 0c3 0 6 0 9 1 73 9 127 73 123 146-5 74-65 132-139 132-74 0-135-57-140-130l0-4 0 0c0-3-1-5 0-8l0-3c0-12 2-24 6-35 2-13 12-24 26-28 13-3 27 1 36 11 9 10 12 25 7 38l0 0 0 1c-1 1-1 2-1 3-2 8-3 16-2 24 4 36 36 62 72 60 36-3 64-33 64-69-1-36-29-66-65-67" horiz-adv-x="750" />

<glyph glyph-name="lock" unicode="&#xe82f;" d="M480 310c-56 0-100-44-100-100 0-24 8-44 24-60v-76c0-40 36-76 76-76 40 0 76 32 76 76v76c16 16 24 40 24 60 0 52-44 100-100 100z m24-132c-8-8-12-16-12-24v-88c0-8-8-16-16-12-8 0-12 8-12 12v88c0 8-4 16-12 24-16 16-16 40-4 56 8 8 16 12 28 12 20 0 40-16 40-40 4-8-4-20-12-28l0 0 0 0z m-48-264h-112c-16 0-32-16-32-32 0-16 16-32 32-32h112c16 0 32 12 36 28 0 16-12 32-28 36-4 0-4 0-8 0l0 0 0 0z m316 536c-16 0-32 12-32 32v96c4 96-48 184-128 232-84 48-184 48-268 0-80-44-128-136-128-232v-100c0-16-12-32-32-32-60 0-108-48-108-108v-380c0-60 48-108 108-108 0 0 0 0 0 0h20c20 0 36 12 36 32 0 0 0 0 0 0v0c0 16-12 32-32 32h-20c-24 0-44 20-44 44v380c0 24 20 44 44 48h588c24 0 44-20 44-44 0 0 0 0 0 0v-380c0-24-20-44-44-48h-152c-16 0-32-12-32-32l0 0v0c0-16 12-32 32-32h152c60 0 108 48 108 108 0 0 0 0 0 0v380c0 60-52 112-112 112l0 0z m-92 28c0-16-12-32-32-32h-336c-20 4-32 16-32 32v100c0 112 88 200 200 200 0 0 0 0 0 0 112 0 200-92 200-200 0 0 0 0 0 0 0 0 0-100 0-100z" horiz-adv-x="960" />

<glyph glyph-name="money" unicode="&#xe830;" d="M530 273c0 107 68 194 153 194 84 0 153-87 153-194 0-107-69-194-153-194-85 0-153 87-153 194m-75 0c0-148 102-269 228-269 125 0 227 121 227 269 0 148-102 269-227 269-126 0-228-121-228-269m-122 57c-20 0-39-11-49-29-10-17-10-39 0-57 10-17 29-28 50-28 30 1 54 26 54 57 0 31-24 56-55 57m699-114c30 2 54 27 54 57 0 30-24 55-54 57-30-2-54-27-54-57 0-30 24-55 54-57m259-184l0-61c0-3-1-5-3-7-2-2-5-3-7-3l-72 0c2 40 35 72 75 72 2 0 4 0 6 0l0 0 1-1m0 543l0-62 0 0c-3 0-5 0-7 0-40 0-73 32-75 72l72 0c5 0 10-5 10-10m-10 85l-204 0c-20-1-36-18-36-38 0-20 16-36 36-37l58 0c2-81 68-146 149-147 2 0 4 0 6 1l1 0 0-332-1 0c-40 2-79-13-108-40-29-28-46-66-47-106l-718 0c-20-1-36-17-36-37 0-21 16-37 36-38l864 0c46 0 84 38 84 85l0 604c0 47-38 85-84 85m-1196-75l71 0c-2-40-35-72-75-72-2 0-4 0-6 0l0 0 0 62c0 5 4 10 10 10l0 0z m0-624c-3 0-6 1-7 3-2 2-3 4-3 7l0 61 1 0 0 1c2 0 3 0 5 0 40 0 74-32 75-72l-71 0z m214 0c0 0-1 0-2 0l-66 0c-1 40-18 78-47 105-29 28-68 42-108 41 0 0-1 0-1 0l0 332 1 0c2-1 3-1 5-1 82 1 148 66 150 147l725 0 2 0c20 0 37 17 37 37 0 21-17 37-37 37-1 0-1 1-2 1l-871 0c-47 0-85-38-85-85l0-604c0-47 38-85 85-85l212 0 2 0c20 2 34 18 34 38 0 19-15 35-34 37l0 0z m1136 869l-1196 0c-47 0-85-38-85-85l0-27 0-2c1-14 9-26 21-32 12-6 27-5 38 3 11 8 17 21 16 35l0 10c3 12 13 21 25 24l1164 0c13-3 23-13 27-25l0-575c-3-12-13-22-25-25l-4 0c-21 2-39-14-40-34-1-21 14-39 35-40l24 0c22 0 43 9 59 25 16 16 25 37 25 60l0 603c0 47-38 85-84 85m-1206-851c0 0 0-18 25-18l0-18-43 0 0 27 18 9 0 0z m-154 163c0 0 1-31 24-35l0-28-45 0 0 63 21 0 0 0z m0 272c0 0-3 26 30 26l0 27-51 0 0-58 21 5z m153 144c0 0 7 27 42 27l0 28-64 0 0-55 22 0 0 0z m1039-119c0 0 24-2 24-25l19 0 0 45-43 0 0-20 0 0z m-4-333c0 0 28 3 28 29l19 0 0-43-47 0 0 14 0 0z m-126-119c0 0-6-26-31-26l0-18 39 0 0 44-8 0z m-27 598c0 0 22-2 27-22l12 0 0 37-39 0 0-15 0 0z m-1035-54c0 0-2-18 19-17l0-14-39 0 0 31 20 0z m65 54c0 0 15 2 14-15l16 0 0 30-30 0 0-15 0 0z m-65-569c0 0 3 16 19 17l0 14-35 0 0-31 16 0 0 0z m78-37c0 0 0-18-21-18l0-11 42 0 0 33-21-4z m1059 0c0 0-2-18 16-18l0-14-40 0 0 32 24 0 0 0z m63 53c0 0 16 2 16-19l15 0 0 40-31 0 0-21z m-46 553c0 0-23 4-16-22l-24 0 0 48 36 0 4-26 0 0z m62-47c0 0 0-26-24-23l0-19 43 0 0 42-19 0z" horiz-adv-x="1538" />

<glyph glyph-name="more-slim" unicode="&#xe831;" d="M151-71c-40 0-72 32-72 72 0 39 32 71 72 71 39 0 71-32 71-71 0-40-32-72-71-72m0 223l0 0c-83 0-151-68-151-151 0-83 68-151 151-151 83 0 151 68 151 151 0 83-68 151-151 151m0 127c-40 0-72 32-72 71 0 39 32 71 72 71 39 0 71-32 71-71 0-39-32-71-71-71m0 222l0 0c-83 0-151-68-151-151 0-83 68-151 151-151 83 0 151 68 151 151 0 83-68 151-151 151m0 270c39 0 71-32 71-72 0-39-32-71-71-71-40 0-72 32-72 71 0 40 32 72 72 72m0-223l0 0c83 1 151 68 151 151 0 83-68 151-151 151-83 0-151-68-151-151 0-83 68-150 151-151" horiz-adv-x="333" />

<glyph glyph-name="more" unicode="&#xe832;" d="M203 280c-109 0-196-88-196-196 0-109 87-196 196-197 108 1 196 88 196 197 0 108-88 196-196 196m0-90c38 0 73-20 92-53 19-33 19-73 0-106-19-33-54-53-92-53-59 0-106 47-106 106 0 58 47 106 106 106m550 97c-109 0-196-87-196-196 0-108 87-196 196-196 108 0 196 88 196 196 0 109-88 196-196 196m0-90c38 0 73-20 92-53 19-33 19-73 0-106-19-33-54-53-92-53-59 0-106 48-106 106 0 59 47 106 106 106m-548 638c-108 0-196-88-196-196 0-108 88-196 196-196 109 0 196 88 197 196-1 108-88 196-197 196m0-90c59 0 106-48 106-106 0-59-47-106-106-106-58 0-106 47-106 106 0 58 48 106 106 106m558 92c-108 0-196-87-196-196 0-108 88-196 196-196 108 0 196 88 196 196 0 109-88 196-196 196m0-90c58 0 106-47 106-106 0-58-48-106-106-106-59 0-106 48-106 106 0 59 47 106 106 106" horiz-adv-x="1000" />

<glyph glyph-name="mybooking" unicode="&#xe833;" d="M333 739l275 0c10-1 21 4 27 13 5 9 5 20 0 29-6 9-17 14-27 13l-275 0c-16-1-27-13-27-27 0-15 11-27 27-28z m389-83c16 0 28 13 28 28l0 135c1 11-4 21-13 27-9 5-20 5-29 0-9-6-14-16-13-27l0-135c0-7 2-14 8-20 5-5 12-8 19-8l0 0z m-472 0c15 0 28 13 28 28l0 135c1 11-5 21-14 27-8 5-20 5-28 0-9-6-14-16-14-27l0-135c0-7 3-14 8-20 6-5 13-8 20-8l0 0z m611-111c0 15-13 27-29 27l-693 0c-16-1-28-13-28-28 0-14 12-26 28-27l693 0c7 0 15 2 21 8 5 5 8 12 8 20l0 0z m-167-139c0 15-13 27-29 27l-526 0c-16-1-28-13-28-27 0-15 12-27 28-28l526 0c8 0 15 3 21 8 5 5 9 12 9 20l-1 0z m-555-112c-16-1-28-13-28-27 0-15 12-27 28-28l301 0c11-1 22 4 28 13 6 9 6 20 0 29-6 9-17 14-28 13l-301 0 0 0z m832-165l-58 0c-10 0-20 8-21 18l0 60c0 12-5 22-15 28-10 5-22 5-32 0-10-6-16-16-15-28l0-57c0-10-8-19-19-20l-60 0c-16-1-29-14-29-30 0-15 13-28 29-29l62 0c9-2 16-8 17-17l0-62c0-11 5-21 15-27 10-5 22-5 32 0 10 6 16 16 15 27l0 62c3 10 11 16 21 16l58 0c16 1 29 14 29 30 0 15-13 28-29 29l0 0 0 0z m-167 608l84 0c17-4 29-20 29-38l0-292c0-16 12-29 28-29 15 0 27 13 27 29l0 317c0 37-27 67-62 70l-106 0c-15-1-26-14-26-28 0-15 11-28 26-29l0 0z m179-419c-19 10-39 18-59 24-86 22-177-3-239-65-63-62-88-153-66-239 5-21 13-41 24-59 51-93 155-143 260-125 104 17 186 99 204 203 19 105-31 209-124 261l0 0z m13-353c-64-64-165-74-241-24-75 51-105 148-70 232 35 84 124 132 213 114 89-18 154-96 154-187 0-50-20-99-56-135z m-442 82l-454 0c-11 0-21 4-28 12-8 7-12 17-12 27l0 621c3 14 14 26 29 29l79 0c11-1 22 5 27 14 6 9 6 21 0 30-6 10-16 15-27 14l-96 0c-40 0-72-31-72-70l0-670c3-33 28-61 62-65l492 0c16 0 29 13 29 29 0 16-13 29-29 29l0 0z" horiz-adv-x="1111" />

<glyph glyph-name="procedure" unicode="&#xe834;" d="M184 482c0 5 5 10 10 10l29 0c6 0 10-5 10-10l0-29c0-3-1-5-3-7-2-2-4-3-7-3l-29 0c-2 0-5 1-7 3-2 2-3 4-3 7l0 29 0 0z m-44 26l0-81c0-16 13-28 28-28l81 0c16 0 28 12 28 28l0 81c0 15-12 28-28 28l-81 0c-15 0-28-13-28-28l0 0z m93-257c0-3-1-5-3-7-2-2-4-3-7-3l-29 0c-2 0-5 1-7 3-2 2-3 4-3 7l0 29c0 6 5 10 10 10l29 0c6 0 10-4 10-10l0-29 0 0z m44 55c0 16-12 28-28 28l-81 0c-15 0-28-12-28-28l0-81c0-15 13-28 28-28l81 0c16 0 28 13 28 28l0 81 0 0z m-44-255c0-6-4-10-10-10l-29 0c-2 0-5 1-7 3-2 2-3 4-3 7l0 29c0 5 5 10 10 10l29 0c6 0 10-5 10-10l0-29 0 0z m16 81l-81 0c-15 0-28-12-28-27l0-82c0-15 13-28 28-28l81 0c16 0 28 13 28 28l0 82c0 15-12 27-28 27l0 0z m449 591c-13 13-30 20-49 20l-57 0c-16 0-30-14-30-30 0-17 14-30 30-30l47 0c11-3 18-12 19-23l0-717c-1-12-10-22-22-23l-555 0c-12 2-20 12-20 24l0 341c1 12-4 23-14 30-10 6-23 6-33-1-10-6-15-18-14-29l0-356c0-18 8-36 21-49 13-13 31-20 49-20l579 0c18 0 36 7 49 20 13 13 21 31 21 49l0 745c0 18-8 36-21 49m-109-457c0 17-14 30-31 31l-203 0c-16-1-30-14-30-31 0-16 14-30 30-30l203 0c17 0 31 14 31 30m-31 271l-203 0c-16 0-30-13-30-30 0-16 14-30 30-30l203 0c17 0 31 13 31 30 0 17-14 30-31 30m-203-139l151 0c16 0 30 14 30 31 0 16-14 30-30 30l-151 0c-16 0-30-14-30-30 0-17 14-31 30-31m-324 153c8 0 17 3 23 10 5 6 8 15 7 24l0 74c0 12 8 21 19 24l47 0c16 0 30 13 30 30 0 17-14 30-30 30l-57 0c-19 0-36-7-49-20-13-13-21-31-21-49l0-89c-1-8 2-17 8-24 5-7 14-10 23-10m-31-165c0-11 6-21 16-27 11-5 23-4 32 2 9 7 14 18 13 29l0 91c2 12-4 23-14 30-10 6-23 6-33-1-10-6-15-18-14-30l0-90c0-1 0-2 0-4m534-292l-179 0c-16-1-30-14-30-31 0-16 14-30 30-30l179 0c8 0 16 3 22 9 5 5 9 13 8 21 0 17-13 30-30 31m-307 506l130 0 0 0c15 2 27 15 27 30 0 16-12 29-27 31l0 0-2 0-1 0-2 0-98 0c-7 0-13 4-14 10l0 54c1 5 5 9 9 10l56 0c17 1 31 14 31 31 0 13 10 23 24 23 13 0 23-10 23-23 0-17 14-31 31-31l54 0c5-1 9-5 10-10l0-54c-2-6-7-10-14-10l-17 0-1 0c-16-1-29-14-29-30-1-16 11-29 28-31l0 0 47 0c13 0 26 5 35 15 8 9 12 21 12 33l0 100c0 26-22 48-48 48l-52 0c-12 32-44 54-79 54-35 0-66-21-79-54l-54 0c-27 0-48-22-48-48l0-100c0-27 21-48 48-48" horiz-adv-x="733" />

<glyph glyph-name="profile" unicode="&#xe835;" d="M755 9a257 257 0 0 1-74 153 257 257 0 0 1-183 76c-132 0-242-100-257-229-104 78-172 203-172 343 0 236 193 429 429 429 236 0 429-193 429-429 0-140-68-265-172-343m-257-86a426 426 0 0 0-222 63c3 119 101 216 222 216 60 0 115-23 157-65a221 221 0 0 0 65-151 426 426 0 0 0-222-63m0 894c-256 0-465-209-465-465s209-465 465-465 465 209 465 465-209 465-465 465m82-254a18 18 0 0 1-30 6c-4-5-96-108-220-112a167 167 0 0 0 50 118 167 167 0 0 0 118 48h1a168 168 0 0 0 167-165c-28 19-70 60-86 105m-82-276h-1a168 168 0 0 0-163 134c105 4 188 70 224 105 27-50 74-92 104-108a168 168 0 0 0-164-131m1 372h-1c-54 0-105-21-143-59a203 203 0 0 1-61-144 204 204 0 0 1 203-205h1a204 204 0 0 1 204 203 204 204 0 0 1-203 205" horiz-adv-x="1000" />

<glyph glyph-name="question" unicode="&#xe836;" d="M829 657c-7 9-19 13-31 11-11-3-20-12-23-23-3-11 1-24 10-31 58-72 90-163 90-255 0-108-43-211-119-288-76-76-180-119-287-119-56 0-110 12-158 32-15 6-32-1-39-16-7-14-2-32 12-40l-1 0 0 0c57-24 120-38 186-38 258 0 468 210 468 469 0 113-40 217-108 298m-638-595l0 0c-82 77-129 184-128 297-1 107 42 211 118 287 76 76 180 119 288 119 75 0 146-21 207-57 14-9 32-6 42 7 10 14 8 32-5 43l0 0c-74 45-158 69-244 69-259 0-469-210-469-468 0-133 55-252 143-337 7-10 19-14 30-13 12 2 21 10 25 21 4 11 1 24-7 32m289 68c22 0 40-18 40-40 0-22-18-40-40-40-22 0-40 18-40 40 0 22 18 40 40 40m0 520c-88 0-160-74-160-164 0-9 3-17 10-24 6-6 14-10 24-10 9 0 17 4 24 10 6 7 9 15 9 24 0 53 42 96 93 96 51 0 93-43 93-96 0-38-22-73-57-88-42-19-70-62-70-110l0-44c0-9 4-17 10-24 6-6 15-10 24-10 9 0 18 4 24 10 6 7 10 15 10 24l0 44c0 21 11 39 29 47 60 27 98 87 97 152-1 90-72 163-160 163" horiz-adv-x="955" />

<glyph glyph-name="reminder" unicode="&#xe837;" d="M835 79c0-30-24-54-54-54h-557c-30 0-54 24-54 54v12c0 14 34 66 85 119a18 18 0 0 1 5 13v205c0 134 109 244 243 244 134 0 242-110 242-244v-205a18 18 0 0 1 6-13c50-53 84-105 84-119v-12z m-248-157a119 119 0 0 0-84-35h-1c-32 0-62 12-84 35a119 119 0 0 0-34 66h237a119 119 0 0 0-34-66z m-84 891c28 0 51-23 51-51 0-28-23-51-51-51-29 0-52 23-52 51 0 28 23 51 52 51z m279-583v198a281 281 0 0 1-216 273 88 88 0 0 1-63 149 88 88 0 0 1-64-149 281 281 0 0 1-216-273v-198c-23-25-90-100-90-139v-12a91 91 0 0 1 91-91h123a156 156 0 0 1 45-92 155 155 0 0 1 110-46c42 0 82 16 111 46a156 156 0 0 1 45 92h123a91 91 0 0 1 91 91v12c0 39-67 114-90 139z" horiz-adv-x="1000" />

<glyph glyph-name="search" unicode="&#xe838;" d="M1000-62l-208 208c58 76 89 168 89 264 0 117-46 229-129 312-82 83-195 129-312 128-117 1-229-45-312-128-83-83-129-195-128-312-1-117 45-230 128-312 83-83 195-129 312-129 96 0 189 31 265 89l207-208 88 88z m-874 472c-1 83 32 164 91 223 59 59 140 92 223 91 84 1 164-32 223-91 59-59 92-140 91-223 1-84-32-164-91-223-59-59-139-92-223-92-83 0-164 33-223 92-59 59-92 139-91 223z" horiz-adv-x="1000" />

<glyph glyph-name="send" unicode="&#xe839;" d="M0-148l1164 499-1164 499v-389l832-110-832-111z" horiz-adv-x="1167" />

<glyph glyph-name="setting" unicode="&#xe83a;" d="M344 305c-20 68 7 142 67 181 59 39 137 35 192-11 55-45 74-121 47-187-28-66-95-106-166-99-10 1-20-5-25-14-4-8-4-17 0-24 4-8 12-13 20-14 106-10 203 58 230 161 26 102-27 209-124 251-98 41-211 5-267-85-56-91-37-208 44-277 6-5 14-7 21-6 8 2 15 7 18 14 6 10 3 24-6 32-24 20-42 47-51 78l0 0z m606 148l-58 10c-8 2-15 8-18 16-5 15-12 30-19 45-4 8-3 17 2 24l34 48c18 23 15 56-6 76l-63 63c-20 21-53 24-76 6l-42-29c-10-7-22-8-33-5-14 7-29 12-43 18-9 2-16 10-18 19l-9 56c-5 29-30 50-59 50l-88 0c-29 0-54-21-59-50l-10-59c-2-8-8-15-16-18-13-5-27-10-40-16-9-5-20-5-30 0l-46 33c-24 17-56 14-76-6l-64-63c-20-20-23-53-6-77l35-49c5-7 6-15 2-22-7-16-14-31-19-47-2-8-9-14-17-15l-58-10c-29-5-50-29-50-59l0-88c0-29 21-54 50-59l59-10c8-1 15-7 18-15 5-15 12-31 19-46 4-7 3-16-1-23l-35-47c-17-24-14-57 7-77l62-63c21-21 53-24 77-7l74 56c7 4 10 12 10 20-1 9-5 16-12 20-9 5-20 4-29-1l-73-53c-1 0-3-1-4-1-2 0-5 1-6 2l-63 63c-3 3-3 7-1 10l52 72c6 9 6 20 1 29-17 27-29 57-37 88-3 10-11 17-21 19l-88 15c-4 1-7 4-7 8l0 88c0 4 3 8 7 8l87 15c10 1 18 9 21 19 8 31 20 61 36 89 5 8 5 19-1 28l-52 73c-3 3-2 8 0 10l63 63c3 3 7 3 10 1l72-52c9-6 20-6 29-1 27 17 57 29 88 37 10 3 17 11 19 21l15 88c1 4 4 7 8 7l89 0c3 0 7-3 7-7l15-87c1-10 9-18 19-21 32-8 62-20 91-37 8-5 20-5 28 1l72 52c3 3 8 2 10-1l63-62c3-3 3-7 1-10l-52-73c-6-8-6-19-1-28 16-28 29-58 37-89 2-10 10-17 20-19l88-15c4 0 7-4 7-7l0-89c0 0 0-1 0-1-1-3-3-6-7-7l-88-14c-10-2-18-10-21-19-8-32-20-61-36-89-6-9-5-20 1-28l52-73c2-3 1-8-1-10l-63-63c-3-3-7-3-10-1l-73 52c-4 3-9 5-15 5-4 0-9-1-13-4-28-16-57-28-89-36-10-3-17-11-19-21l-14-88c-1-4-4-7-8-7l-88 0c-4 0-8 3-8 7l-12 73c0 0-2 10-2 10-5 12-17 18-29 16-12-3-21-13-21-26 0-2 1-10 2-12l0-6 11-64c5-28 30-49 59-49l88 0c29 0 54 21 59 49l10 57c1 9 8 17 17 20 13 5 27 10 40 17 11 3 24 2 34-5l41-30c24-17 57-14 77 7l63 62c20 21 23 54 6 77l-34 48c-5 7-6 16-2 24 7 14 13 29 19 45 2 8 10 14 18 15l58 10c29 5 50 30 50 59l0 89c0 29-21 54-50 58l0 0z" horiz-adv-x="1000" />

<glyph glyph-name="share" unicode="&#xe83b;" d="M166 525c41 0 79-15 108-40 74 53 148 107 223 159-12 50-1 102 30 142 32 40 80 64 131 64 76 0 143-52 161-126 18-74-17-151-85-187-67-35-150-19-201 38-71-50-143-102-214-153 18-43 16-91-3-133l216-147c55 64 148 77 218 30 70-46 94-138 56-213-39-75-127-109-205-80-79 29-124 112-104 194l-230 155c-57-44-136-46-196-5-59 42-85 117-63 186 21 69 85 116 158 116l0 0z m492-402c-32 0-62-16-78-44-17-27-17-62 0-89 16-28 46-44 78-44 47 2 85 41 85 89 0 47-38 86-85 87l0 1z m0 649c-32 1-62-15-78-43-17-28-17-62 0-89 16-28 46-44 78-44 48 2 86 41 86 88 0 48-38 87-86 88l0 0z m-492-325c-32 1-62-15-78-43-17-27-17-62 0-89 16-28 46-44 78-44 48 2 86 41 86 88 0 48-38 87-86 88l0 0z" horiz-adv-x="824" />

<glyph glyph-name="sort" unicode="&#xe83c;" d="M494 200c-11 10-29 8-39-3l-101-122 0 485c0 16-12 29-28 29-15 0-27-13-27-29l0-485-101 122c-11 11-28 13-39 3-11-12-12-29-3-41l150-177c11-15 31-13 40 0l151 177c9 11 8 30-3 41z m311 289l-148 177c-13 15-29 15-41 0l-151-177c-9-12-8-31 3-41 17-14 34-4 38 3l102 122 0-484c0-16 12-29 27-29 15 0 28 11 28 27l0 485 101-121c11-12 28-13 39-3 11 12 12 29 2 41z" horiz-adv-x="1000" />

<glyph glyph-name="square" unicode="&#xe83d;" d="M893 850l-786 0c-59 0-107-48-107-107l0-786c0-59 48-107 107-107l786 0c59 0 107 48 107 107l0 786c0 59-48 107-107 107z m-13-893l-759 0c-8 0-14 6-14 13l0 760c0 7 6 13 14 13l759 0c7 0 13-6 13-13l0-760c0-7-6-13-13-13z" horiz-adv-x="1000" />

<glyph glyph-name="spinner" unicode="&#xe83e;" d="M1038 328l-120 0c7 138-61 269-178 342-117 74-265 77-386 11-121-67-196-195-196-333 0-189 139-346 320-375l0-121c-248 29-440 240-440 496 0 276 224 500 500 500 276 0 500-224 500-500 0-6 0-13 0-20l0 0z" horiz-adv-x="1040" />

<glyph glyph-name="star" unicode="&#xe83f;" d="M586 818l116-238c8-17 24-28 42-31l260-38c46-7 64-64 31-96l-188-185c-13-13-19-32-16-50l44-262c8-46-39-81-80-59l-233 123c-16 9-36 9-52 0l-233-123c-40-22-88 13-80 59l44 262c3 18-3 37-16 50l-188 185c-33 32-15 89 31 96l260 38c18 3 34 14 42 31l116 238c21 41 80 41 100 0l0 0z" horiz-adv-x="1067" />

<glyph glyph-name="time" unicode="&#xe840;" d="M203 36l0 0c-87 81-137 196-136 315-1 115 45 225 126 306 81 81 191 127 306 127 80 0 156-22 220-61 15-11 36-8 47 7 11 15 8 36-7 47l0 0c-78 48-168 73-260 73-275 0-499-224-499-499 0-140 59-268 153-358 7-11 19-16 32-14 12 2 23 11 26 23 4 12 1 25-8 34m680 633l0 0c-8 10-21 14-33 11-13-2-22-12-25-24-3-12 1-25 10-33 62-77 96-173 96-272 0-114-45-224-127-305-81-82-191-127-305-127-58 0-115 11-168 34-16 6-34-2-42-17-7-15-2-34 13-43l0 0 0 0c62-27 129-40 197-40 275 0 498 223 498 498 1 116-40 229-114 318m-381-61c0 11-5 21-13 28l-1 1c-13 10-32 10-45 0l0-1c-9-7-14-17-14-28l0-286c0-42 34-76 76-76l135 0c14 0 26 8 32 20 6 12 5 27-3 38l-2 2c-6 8-17 14-28 14l-95 0c-11 0-22 4-29 12-8 7-13 18-13 29l0 247 0 0z" horiz-adv-x="1000" />

<glyph glyph-name="times-circle" unicode="&#xe841;" d="M500 850c-276 0-500-224-500-500 0-276 224-500 500-500 276 0 500 224 500 500 0 276-224 500-500 500z m245-631c10-10 10-25 0-34l-80-80c-9-10-24-10-34 0l-131 132-131-132c-10-10-25-10-34 0l-80 80c-10 9-10 25 0 34l132 131-132 131c-10 10-10 25 0 35l80 79c9 10 25 10 34 0l131-132 131 132c10 10 25 10 35 0l79-80c10-9 10-24 0-34l-132-131 132-131z" horiz-adv-x="1000" />

<glyph glyph-name="times" unicode="&#xe842;" d="M690 350l284 284c35 35 35 92 0 127l-63 63c-35 35-92 35-127 0l-284-284-284 284c-35 35-92 35-127 0l-63-63c-35-35-35-92 0-127l285-284-285-284c-35-35-35-92 0-127l63-63c35-35 92-35 127 0l284 285 284-285c35-35 92-35 127 0l63 63c35 35 35 92 0 127l-284 284z" horiz-adv-x="1000" />

<glyph glyph-name="trash-alt" unicode="&#xe843;" d="M545 486c-13 0-23-10-23-23l0-442c0-13 10-23 23-23 13 0 24 10 24 23l0 442c0 13-11 23-24 23z m-275 0c-13 0-24-10-24-23l0-442c0-13 11-23 24-23 13 0 23 10 23 23l0 442c0 13-10 23-23 23z m-201 65l0-576c0-34 12-66 34-89 22-23 52-36 83-36l443 0c31 0 61 13 83 36 22 23 34 55 34 89l0 576c44 11 72 53 66 98-6 44-44 77-89 77l-119 0 0 29c0 25-10 49-27 66-18 17-41 27-66 27l-207 0c-25 0-48-10-66-27-17-17-27-41-27-66l0-29-119 0c-45 0-83-33-89-77-6-45 22-87 66-98z m560-654l-443 0c-39 0-71 34-71 78l0 574 585 0 0-574c0-44-31-78-71-78z m-371 858c0 13 5 24 13 33 9 8 21 13 33 13l207 0c12 0 24-5 33-13 8-9 13-20 13-33l0-29-299 0 0 29z m-166-76l631 0c24 0 42-18 42-42 0-23-18-42-42-42l-631 0c-24 0-42 19-42 42 0 24 18 42 42 42z m316-193c-13 0-24-10-24-23l0-442c0-13 11-23 24-23 12 0 23 10 23 23l0 442c0 13-11 23-23 23z" horiz-adv-x="833" />

<glyph glyph-name="up" unicode="&#xe844;" d="M548 121l0-1 0 330 127-123c6-6 14-9 23-9 9 0 17 3 23 9l20 19c6 6 10 14 10 23 0 8-4 17-10 23l-217 211c-6 6-15 10-23 10-9 0-17-4-24-10l-217-211c-6-6-9-14-9-23 0-9 3-17 9-23l20-19c13-12 33-12 46 0l128 125 0-332c0-18 15-32 33-32l28 0c18 0 33 14 33 33l0 0z" horiz-adv-x="1000" />
</font>
</defs>
</svg>
